<svg width="2444" height="1809" viewBox="0 0 2444 1809" fill="none" xmlns="http://www.w3.org/2000/svg">
<path d="M1340.9 1651C1374.39 1651 1394.32 1667.32 1394.32 1691.92C1394.32 1719.26 1374.61 1730.92 1347.26 1736.44L1334.33 1739.19C1309.1 1744.7 1300.19 1750.85 1300.19 1764.21C1300.19 1780.74 1312.7 1789.44 1334.96 1789.44C1357.86 1789.44 1375.67 1781.59 1376.09 1755.52H1398.77C1398.56 1791.98 1373.33 1808.73 1335.39 1808.73C1298.5 1808.73 1276.66 1791.56 1276.66 1763.57C1276.66 1740.68 1290.02 1727.11 1325.21 1719.69L1338.35 1716.93C1364.22 1711.21 1371.21 1704.85 1371.21 1691.49C1371.21 1678.56 1361.04 1670.29 1340.69 1670.29C1313.34 1670.29 1304.65 1680.89 1303.37 1698.7H1280.9C1281.54 1672.41 1297.44 1651 1340.9 1651ZM1980.35 1651C2013.85 1651 2033.78 1667.32 2033.78 1691.92C2033.78 1719.26 2014.06 1730.92 1986.71 1736.44L1973.78 1739.19C1948.55 1744.7 1939.65 1750.85 1939.65 1764.21C1939.65 1780.74 1952.16 1789.44 1974.42 1789.44C1997.31 1789.44 2015.12 1781.59 2015.54 1755.52H2038.23C2038.01 1791.98 2012.79 1808.73 1974.84 1808.73C1937.95 1808.73 1916.12 1791.56 1916.12 1763.57C1916.12 1740.68 1929.47 1727.11 1964.66 1719.69L1977.81 1716.93C2003.67 1711.21 2010.67 1704.85 2010.67 1691.49C2010.67 1678.56 2000.49 1670.29 1980.14 1670.29C1952.79 1670.29 1944.1 1680.89 1942.83 1698.7H1920.36C1920.99 1672.41 1936.89 1651 1980.35 1651ZM2108.15 1651C2141.64 1651 2161.57 1667.32 2161.57 1691.92C2161.57 1719.26 2141.85 1730.92 2114.51 1736.44L2101.58 1739.19C2076.35 1744.7 2067.44 1750.85 2067.44 1764.21C2067.44 1780.74 2079.95 1789.44 2102.21 1789.44C2125.11 1789.44 2142.91 1781.59 2143.34 1755.52H2166.02C2165.81 1791.98 2140.58 1808.73 2102.64 1808.73C2065.75 1808.73 2043.91 1791.56 2043.91 1763.57C2043.91 1740.68 2057.27 1727.11 2092.46 1719.69L2105.6 1716.93C2131.47 1711.21 2138.46 1704.85 2138.46 1691.49C2138.46 1678.56 2128.29 1670.29 2107.94 1670.29C2080.59 1670.29 2071.9 1680.89 2070.62 1698.7H2048.15C2048.79 1672.41 2064.69 1651 2108.15 1651ZM2244.04 1651C2288.56 1651 2317.82 1682.8 2317.82 1729.86C2317.82 1776.93 2288.56 1808.73 2244.04 1808.73C2199.73 1808.73 2170.48 1776.93 2170.48 1729.86C2170.48 1682.8 2199.73 1651 2244.04 1651ZM779.694 1805.34H756.162L741.534 1766.12H673.694L658.854 1805.34H634.898L694.682 1654.39H720.758L779.694 1805.34ZM874.33 1674.74H824.299V1805.34H801.19V1674.74H751.158V1654.39H874.33V1674.74ZM906.053 1805.34H883.369V1654.39H906.053V1805.34ZM1038.4 1805.34H1015.72V1743.22H971.836C955.088 1743.22 947.032 1749.58 946.184 1769.93L945.548 1786.04C945.336 1793.89 944.276 1800.67 941.096 1805.34H917.775C920.955 1800.46 922.439 1793.46 922.863 1786.89L924.348 1763.36C924.984 1747.67 930.496 1737.07 945.972 1732.62C930.284 1727.53 920.531 1715.02 920.531 1696.16C920.531 1669.87 940.672 1654.39 972.472 1654.39H1038.4V1805.34ZM1189.02 1805.34H1165.49L1150.86 1766.12H1083.02L1068.18 1805.34H1044.22L1104.01 1654.39H1130.08L1189.02 1805.34ZM1283.66 1674.74H1233.62V1805.34H1210.52V1674.74H1160.48V1654.39H1283.66V1674.74ZM1580.77 1801.68V1784.98H1654.76V1654.39H1677.44V1805.34H1558.67L1544.04 1766.12H1476.2L1461.36 1805.34H1437.4L1497.18 1654.39H1523.26L1580.77 1801.68ZM1784.74 1805.34H1688.07V1784.98H1762.06V1654.39H1784.74V1805.34ZM1904.46 1805.34H1797.41V1784.98H1881.78V1737.28H1804.83V1717.36H1881.78V1674.74H1796.77V1654.39H1904.46V1805.34ZM2443.81 1654.39V1805.34H2421.12V1743.22H2377.24C2360.49 1743.22 2352.43 1749.58 2351.59 1769.93L2350.95 1786.04C2350.74 1793.89 2349.68 1800.67 2346.5 1805.34H2323.18C2326.36 1800.46 2327.84 1793.46 2328.27 1786.89L2329.75 1763.36C2330.39 1747.67 2335.9 1737.07 2351.37 1732.62C2335.69 1727.53 2325.93 1715.02 2325.93 1696.16C2325.93 1669.87 2346.07 1654.39 2377.87 1654.39H2443.81ZM2244.04 1671.35C2213.94 1671.35 2194.01 1693.82 2194.01 1729.86C2194.01 1765.9 2213.94 1788.38 2244.04 1788.38C2274.35 1788.38 2294.28 1765.9 2294.28 1729.86C2294.28 1693.82 2274.36 1671.35 2244.04 1671.35ZM707.826 1676.23C700.194 1697.22 690.442 1722.66 684.294 1738.13L681.114 1746.4H734.326L731.146 1738.13C725.21 1722.66 715.458 1697.22 707.826 1676.23ZM1117.15 1676.23C1109.52 1697.22 1099.77 1722.66 1093.62 1738.13L1090.44 1746.4H1143.65L1140.47 1738.13C1134.54 1722.66 1124.78 1697.22 1117.15 1676.23ZM1510.33 1676.23C1502.7 1697.22 1492.94 1722.66 1486.8 1738.13L1483.62 1746.4H1536.83L1533.65 1738.13C1527.71 1722.66 1517.96 1697.22 1510.33 1676.23ZM973.743 1673.9C955.511 1673.9 943.852 1681.53 943.852 1698.28C943.852 1715.66 955.512 1724.35 972.048 1724.35H1015.72V1673.9H973.743ZM2379.15 1673.9C2360.91 1673.9 2349.25 1681.53 2349.25 1698.28C2349.25 1715.66 2360.91 1724.35 2377.45 1724.35H2421.12V1673.9H2379.15ZM181.379 1486C225.899 1486 255.155 1517.8 255.155 1564.86C255.155 1611.93 225.899 1643.73 181.379 1643.73C137.071 1643.73 107.816 1611.93 107.815 1564.86C107.815 1517.8 137.071 1486 181.379 1486ZM751.892 1486C796.411 1486 825.667 1517.8 825.667 1564.86C825.667 1611.93 796.411 1643.73 751.892 1643.73C707.584 1643.73 678.327 1611.93 678.327 1564.86C678.327 1517.8 707.584 1486 751.892 1486ZM1863.61 1486C1905.37 1486 1934.84 1516.1 1934.84 1564.86C1934.84 1613.62 1905.16 1643.73 1863.61 1643.73C1830.96 1643.73 1800.86 1624.22 1796.62 1584.58H1819.3C1822.9 1611.29 1843.05 1623.59 1863.61 1623.59C1892.44 1623.59 1911.31 1601.75 1911.31 1564.86C1911.31 1527.98 1892.44 1506.14 1863.61 1506.14C1844.11 1506.14 1826.51 1515.47 1820.36 1539.42H1797.46C1804.67 1502.54 1832.23 1486 1863.61 1486ZM2370.88 1486C2415.61 1486 2443.81 1517.8 2443.81 1564.86C2443.81 1611.93 2415.4 1643.73 2372.15 1643.73C2350.53 1643.73 2333.78 1635.25 2322.97 1620.2L2318.94 1640.34H2301.55V1561.05H2367.27V1580.34H2322.75C2323.6 1605.99 2344.8 1623.59 2370.24 1623.59C2400.77 1623.59 2420.27 1600.9 2420.27 1564.86C2420.27 1528.82 2400.98 1506.14 2370.67 1506.14C2348.2 1506.14 2330.81 1518.65 2326.57 1539.21H2303.25C2308.13 1507.2 2333.57 1486 2370.88 1486ZM291.424 1552.36H369.228V1489.39H391.912V1640.34H369.228V1573.13H291.424V1640.34H268.74V1489.39H291.424V1552.36ZM520.329 1640.34H497.646V1584.58H456.093C421.961 1584.58 404.365 1565.08 404.365 1537.09C404.365 1508.9 421.961 1489.39 456.093 1489.39H520.329V1640.34ZM861.295 1535.18C861.295 1556.6 861.295 1582.67 860.447 1611.29C868.715 1596.66 880.375 1577.58 889.915 1562.53L936.555 1489.39H962.631V1640.34H940.583V1594.54C940.583 1573.13 940.583 1547.06 941.431 1518.65C933.375 1533.28 921.927 1551.51 911.963 1567.2L865.535 1640.34H839.459V1489.39H861.295V1535.18ZM1005.34 1640.34H982.653V1489.39H1005.34V1640.34ZM1137.49 1509.74H1087.46V1640.34H1064.35V1509.74H1014.32V1489.39H1137.49V1509.74ZM1168.5 1535.18C1168.5 1556.6 1168.5 1582.67 1167.65 1611.29C1175.92 1596.66 1187.58 1577.58 1197.12 1562.53L1243.76 1489.39H1269.83V1640.34H1247.78V1594.54C1247.78 1573.13 1247.78 1547.06 1248.63 1518.65C1240.58 1533.28 1229.13 1551.51 1219.16 1567.2L1172.74 1640.34H1146.66V1489.39H1168.5V1535.18ZM1389.55 1640.34H1282.49V1619.98H1366.87V1572.28H1289.91V1552.36H1366.87V1509.74H1281.86V1489.39H1389.55V1640.34ZM1531.84 1640.34H1477.99C1430.72 1640.34 1403.16 1611.5 1403.16 1564.86C1403.16 1518.22 1430.72 1489.39 1477.99 1489.39H1531.84V1640.34ZM1651.56 1640.34H1544.5V1619.98H1628.88V1572.28H1551.92V1552.36H1628.88V1509.74H1543.87V1489.39H1651.56V1640.34ZM1783.92 1640.34H1761.23V1578.22H1717.35C1700.6 1578.22 1692.54 1584.58 1691.7 1604.93L1691.06 1621.04C1690.85 1628.89 1689.79 1635.67 1686.61 1640.34H1663.29C1666.47 1635.46 1667.95 1628.46 1668.38 1621.89L1669.86 1598.36C1670.5 1582.67 1676.01 1572.07 1691.48 1567.62C1675.8 1562.53 1666.04 1550.02 1666.04 1531.16C1666.04 1504.87 1686.18 1489.39 1717.98 1489.39H1783.92V1640.34ZM2119.11 1640.34H2095.58L2080.95 1601.12H2013.11L1998.27 1640.34H1974.32L2034.1 1489.39H2060.18L2119.11 1640.34ZM2147.49 1640.34H2124.8V1489.39H2147.49V1640.34ZM2298.1 1640.34H2274.57L2259.94 1601.12H2192.1L2177.26 1640.34H2153.31L2213.09 1489.39H2239.17L2298.1 1640.34ZM181.379 1506.35C151.275 1506.35 131.348 1528.82 131.348 1564.86C131.348 1600.9 151.275 1623.38 181.379 1623.38C211.695 1623.38 231.623 1600.9 231.623 1564.86C231.623 1528.82 211.695 1506.35 181.379 1506.35ZM751.892 1506.35C721.788 1506.35 701.859 1528.82 701.859 1564.86C701.859 1600.9 721.788 1623.38 751.892 1623.38C782.207 1623.38 802.135 1600.9 802.135 1564.86C802.135 1528.82 782.207 1506.35 751.892 1506.35ZM1478.21 1509.32C1444.92 1509.32 1426.9 1529.67 1426.9 1564.86C1426.9 1600.06 1444.92 1620.41 1478.21 1620.41H1509.16V1509.32H1478.21ZM633.608 1589.88H571.492V1571.44H633.608V1589.88ZM2047.24 1511.23C2039.61 1532.22 2029.86 1557.66 2023.71 1573.13L2020.53 1581.4H2073.74L2070.56 1573.13C2064.63 1557.66 2054.88 1532.22 2047.24 1511.23ZM2226.24 1511.23C2218.6 1532.22 2208.85 1557.66 2202.7 1573.13L2199.52 1581.4H2252.74L2249.56 1573.13C2243.62 1557.66 2233.87 1532.22 2226.24 1511.23ZM456.518 1509.32C437.438 1509.32 427.474 1519.5 427.474 1537.09C427.474 1554.69 437.438 1564.65 456.518 1564.65H497.646V1509.32H456.518ZM1719.26 1508.9C1701.02 1508.9 1689.36 1516.53 1689.36 1533.28C1689.36 1550.66 1701.02 1559.35 1717.56 1559.35H1761.23V1508.9H1719.26ZM1195.53 1321C1240.05 1321 1269.3 1352.8 1269.3 1399.86C1269.3 1446.93 1240.05 1478.73 1195.53 1478.73C1151.22 1478.73 1121.96 1446.93 1121.96 1399.86C1121.96 1352.8 1151.22 1321 1195.53 1321ZM1561.52 1321C1606.04 1321 1635.3 1352.8 1635.3 1399.86C1635.3 1446.93 1606.04 1478.73 1561.52 1478.73C1517.22 1478.73 1487.96 1446.93 1487.96 1399.86C1487.96 1352.8 1517.22 1321 1561.52 1321ZM1708.63 1321C1750.4 1321 1779.87 1351.1 1779.87 1399.86C1779.87 1448.62 1750.18 1478.73 1708.63 1478.73C1675.98 1478.73 1645.88 1459.22 1641.64 1419.58H1664.33C1667.93 1446.29 1688.07 1458.59 1708.63 1458.59C1737.46 1458.59 1756.33 1436.75 1756.33 1399.86C1756.33 1362.98 1737.46 1341.14 1708.63 1341.14C1689.13 1341.14 1671.53 1350.47 1665.39 1374.42H1642.49C1649.7 1337.54 1677.26 1321 1708.63 1321ZM609.468 1475.34H586.784V1324.39H609.468V1475.34ZM741.623 1344.74H691.592V1475.34H668.483V1344.74H618.451V1324.39H741.623V1344.74ZM866.521 1344.74H816.489V1475.34H793.381V1344.74H743.35V1324.39H866.521V1344.74ZM976.087 1475.34H869.027V1454.98H953.403V1407.28H876.447V1387.36H953.403V1344.74H868.392V1324.39H976.087V1475.34ZM1108.44 1475.34H1085.75V1413.22H1041.87C1025.12 1413.22 1017.07 1419.58 1016.22 1439.93L1015.58 1456.04C1015.37 1463.89 1014.31 1470.67 1011.13 1475.34H987.811C990.99 1470.46 992.474 1463.46 992.898 1456.89L994.382 1433.36C995.018 1417.67 1000.53 1407.07 1016.01 1402.62C1000.32 1397.53 990.566 1385.02 990.566 1366.16C990.566 1339.87 1010.71 1324.39 1042.51 1324.39H1108.44V1475.34ZM1344.45 1402.62C1349.75 1417.04 1355.9 1434.63 1360.14 1447.35C1364.38 1435.06 1370.31 1418.94 1375.61 1404.74L1406.56 1324.39H1437.94V1475.34H1416.1V1428.06C1416.1 1406.86 1416.11 1380.57 1416.95 1352.16C1413.14 1363.61 1409.32 1373.58 1404.44 1386.51L1369.89 1475.34H1350.81L1316.68 1386.51C1311.59 1373.36 1307.77 1363.19 1303.96 1351.53C1304.81 1380.15 1304.8 1406.65 1304.8 1428.06V1475.34H1282.97V1324.39H1314.56L1344.45 1402.62ZM1816.21 1475.34H1793.53V1324.39H1816.21V1475.34ZM1948.56 1475.34H1925.88V1413.22H1882C1865.25 1413.22 1857.19 1419.58 1856.34 1439.93L1855.71 1456.04C1855.5 1463.89 1854.43 1470.67 1851.25 1475.34H1827.93C1831.11 1470.46 1832.6 1463.46 1833.02 1456.89L1834.51 1433.36C1835.14 1417.67 1840.65 1407.07 1856.13 1402.62C1840.44 1397.53 1830.69 1385.02 1830.69 1366.16C1830.69 1339.87 1850.83 1324.39 1882.63 1324.39H1948.56V1475.34ZM2068.28 1475.34H1961.22V1454.98H2045.6V1407.28H1968.64V1387.36H2045.6V1344.74H1960.59V1324.39H2068.28V1475.34ZM2210.57 1475.34H2156.72C2109.45 1475.34 2081.89 1446.5 2081.89 1399.86C2081.89 1353.22 2109.45 1324.39 2156.72 1324.39H2210.57V1475.34ZM2330.29 1475.34H2223.24V1454.98H2307.61V1407.28H2230.66V1387.36H2307.61V1344.74H2222.6V1324.39H2330.29V1475.34ZM2443.81 1475.34H2421.12V1407.28H2348.83V1387.36H2421.12V1344.74H2340.99V1324.39H2443.81V1475.34ZM1195.53 1341.35C1165.42 1341.35 1145.49 1363.82 1145.49 1399.86C1145.49 1435.9 1165.42 1458.38 1195.53 1458.38C1225.84 1458.38 1245.77 1435.9 1245.77 1399.86C1245.77 1363.82 1225.84 1341.35 1195.53 1341.35ZM1561.52 1341.35C1531.42 1341.35 1511.49 1363.82 1511.49 1399.86C1511.49 1435.9 1531.42 1458.38 1561.52 1458.38C1591.84 1458.38 1611.77 1435.9 1611.77 1399.86C1611.77 1363.82 1591.84 1341.35 1561.52 1341.35ZM2156.94 1344.32C2123.65 1344.32 2105.63 1364.67 2105.63 1399.86C2105.63 1435.06 2123.65 1455.41 2156.94 1455.41H2187.89V1344.32H2156.94ZM535.566 1424.88H473.45V1406.44H535.566V1424.88ZM1043.78 1343.9C1025.55 1343.9 1013.89 1351.53 1013.89 1368.28C1013.89 1385.66 1025.55 1394.35 1042.08 1394.35H1085.75V1343.9H1043.78ZM1883.9 1343.9C1865.67 1343.9 1854.01 1351.53 1854.01 1368.28C1854.01 1385.66 1865.67 1394.35 1882.21 1394.35H1925.88V1343.9H1883.9ZM557.579 1156C602.099 1156 631.355 1187.8 631.355 1234.86C631.355 1281.93 602.099 1313.73 557.579 1313.73C513.271 1313.73 484.016 1281.93 484.016 1234.86C484.016 1187.8 513.271 1156 557.579 1156ZM1024.31 1156C1066.08 1156 1095.54 1186.1 1095.54 1234.86C1095.54 1283.62 1065.86 1313.73 1024.31 1313.73C991.665 1313.73 961.56 1294.22 957.32 1254.58H980.004C983.608 1281.29 1003.75 1293.59 1024.31 1293.59C1053.14 1293.59 1072.01 1271.75 1072.01 1234.86C1072.01 1197.98 1053.14 1176.14 1024.31 1176.14C1004.81 1176.14 987.213 1185.47 981.064 1209.42H958.168C965.376 1172.54 992.937 1156 1024.31 1156ZM2161.23 1156C2202.99 1156 2232.46 1186.1 2232.46 1234.86C2232.46 1283.62 2202.78 1313.73 2161.23 1313.73C2128.58 1313.73 2098.48 1294.22 2094.24 1254.58H2116.92C2120.52 1281.29 2140.66 1293.59 2161.23 1293.59C2190.06 1293.59 2208.93 1271.75 2208.93 1234.86C2208.93 1197.98 2190.06 1176.14 2161.23 1176.14C2141.72 1176.14 2124.13 1185.47 2117.98 1209.42H2095.08C2102.29 1172.54 2129.85 1156 2161.23 1156ZM717.597 1310.34H620.924V1289.98H694.912V1159.39H717.597V1310.34ZM824.896 1310.34H728.225V1289.98H802.213V1159.39H824.896V1310.34ZM944.618 1310.34H837.559V1289.98H921.935V1242.28H844.979V1222.36H921.935V1179.74H836.923V1159.39H944.618V1310.34ZM1221.54 1310.34H1198.85V1248.22H1154.97C1138.22 1248.22 1130.16 1254.58 1129.32 1274.93L1128.68 1291.04C1128.47 1298.89 1127.41 1305.67 1124.23 1310.34H1100.91C1104.09 1305.46 1105.57 1298.46 1106 1291.89L1107.48 1268.36C1108.12 1252.67 1113.63 1242.07 1129.1 1237.62C1113.42 1232.53 1103.66 1220.02 1103.66 1201.16C1103.66 1174.87 1123.8 1159.39 1155.6 1159.39H1221.54V1310.34ZM1372.15 1310.34H1348.62L1333.99 1271.12H1266.15L1251.31 1310.34H1227.36L1287.14 1159.39H1313.21L1372.15 1310.34ZM1439.33 1237.62C1444.63 1252.04 1450.77 1269.63 1455.01 1282.35C1459.25 1270.06 1465.19 1253.94 1470.49 1239.74L1501.44 1159.39H1532.82V1310.34H1510.98V1263.06C1510.98 1241.86 1510.98 1215.57 1511.83 1187.16C1508.02 1198.61 1504.2 1208.58 1499.32 1221.51L1464.77 1310.34H1445.69L1411.55 1221.51C1406.47 1208.36 1402.65 1198.19 1398.83 1186.53C1399.68 1215.15 1399.68 1241.65 1399.68 1263.06V1310.34H1377.85V1159.39H1409.44L1439.33 1237.62ZM1722.02 1306.68V1289.98H1796.01V1159.39H1818.7V1310.34H1699.92L1685.29 1271.12H1617.45L1602.61 1310.34H1578.65L1638.44 1159.39H1664.51L1722.02 1306.68ZM1938.42 1310.34H1831.36V1289.98H1915.73V1242.28H1838.78V1222.36H1915.73V1179.74H1830.72V1159.39H1938.42V1310.34ZM1981.05 1222.36H2058.85V1159.39H2081.53V1310.34H2058.85V1243.13H1981.05V1310.34H1958.36V1159.39H1981.05V1222.36ZM2268.81 1310.34H2246.12V1159.39H2268.81V1310.34ZM2350.31 1237.62C2355.61 1252.04 2361.76 1269.63 2366 1282.35C2370.24 1270.06 2376.18 1253.94 2381.48 1239.74L2412.43 1159.39H2443.81V1310.34H2421.97V1263.06C2421.97 1241.86 2421.97 1215.57 2422.82 1187.16C2419 1198.61 2415.19 1208.58 2410.31 1221.51L2375.75 1310.34H2356.67L2322.54 1221.51C2317.45 1208.36 2313.64 1198.19 2309.82 1186.53C2310.67 1215.15 2310.67 1241.65 2310.67 1263.06V1310.34H2288.83V1159.39H2320.42L2350.31 1237.62ZM557.579 1176.35C527.475 1176.35 507.547 1198.82 507.547 1234.86C507.547 1270.9 527.475 1293.38 557.579 1293.38C587.895 1293.38 607.823 1270.9 607.823 1234.86C607.823 1198.82 587.895 1176.35 557.579 1176.35ZM1300.28 1181.23C1292.65 1202.22 1282.9 1227.66 1276.75 1243.13L1273.57 1251.4H1326.78L1323.6 1243.13C1317.67 1227.66 1307.92 1202.22 1300.28 1181.23ZM1651.58 1181.23C1643.95 1202.22 1634.2 1227.66 1628.05 1243.13L1624.87 1251.4H1678.08L1674.9 1243.13C1668.97 1227.66 1659.21 1202.22 1651.58 1181.23ZM1156.88 1178.9C1138.64 1178.9 1126.98 1186.53 1126.98 1203.28C1126.98 1220.66 1138.64 1229.35 1155.18 1229.35H1198.85V1178.9H1156.88ZM785.421 991C818.917 991 838.846 1007.32 838.846 1031.92C838.846 1059.26 819.129 1070.92 791.781 1076.44L778.85 1079.19C753.622 1084.7 744.718 1090.85 744.718 1104.21C744.718 1120.74 757.225 1129.44 779.485 1129.44C802.381 1129.44 820.189 1121.59 820.613 1095.52H843.297C843.085 1131.98 817.857 1148.73 779.909 1148.73C743.021 1148.73 721.186 1131.56 721.186 1103.57C721.186 1080.68 734.541 1067.11 769.733 1059.69L782.877 1056.93C808.741 1051.21 815.737 1044.85 815.737 1031.49C815.737 1018.56 805.561 1010.29 785.209 1010.29C757.861 1010.29 749.169 1020.89 747.897 1038.7H725.426C726.062 1012.41 741.961 991 785.421 991ZM1752.37 991C1785.86 991 1805.79 1007.32 1805.79 1031.92C1805.79 1059.26 1786.07 1070.92 1758.72 1076.44L1745.79 1079.19C1720.56 1084.7 1711.66 1090.85 1711.66 1104.21C1711.66 1120.74 1724.17 1129.44 1746.43 1129.44C1769.32 1129.44 1787.13 1121.59 1787.56 1095.52H1810.24C1810.03 1131.98 1784.8 1148.73 1746.85 1148.73C1709.96 1148.73 1688.13 1131.56 1688.13 1103.57C1688.13 1080.68 1701.48 1067.11 1736.68 1059.69L1749.82 1056.93C1775.68 1051.21 1782.68 1044.85 1782.68 1031.49C1782.68 1018.56 1772.51 1010.29 1752.15 1010.29C1724.81 1010.29 1716.11 1020.89 1714.84 1038.7H1692.37C1693.01 1012.41 1708.91 991 1752.37 991ZM2385.93 991C2419.43 991 2439.35 1007.32 2439.35 1031.92C2439.35 1059.26 2419.64 1070.92 2392.29 1076.44L2379.36 1079.19C2354.13 1084.7 2345.23 1090.85 2345.23 1104.21C2345.23 1120.74 2357.73 1129.44 2379.99 1129.44C2402.89 1129.44 2420.7 1121.59 2421.12 1095.52H2443.81C2443.59 1131.98 2418.37 1148.73 2380.42 1148.73C2343.53 1148.73 2321.69 1131.56 2321.69 1103.57C2321.69 1080.68 2335.05 1067.11 2370.24 1059.69L2383.39 1056.93C2409.25 1051.21 2416.25 1044.85 2416.25 1031.49C2416.25 1018.56 2406.07 1010.29 2385.72 1010.29C2358.37 1010.29 2349.68 1020.89 2348.41 1038.7H2325.93C2326.57 1012.41 2342.47 991 2385.93 991ZM1579.17 1089.16C1579.17 1116.08 1593.38 1128.59 1617.54 1128.59C1641.71 1128.59 1655.91 1116.08 1655.92 1089.16V994.392H1678.6V1088.94C1678.6 1127.32 1655.49 1148.52 1617.54 1148.52C1579.38 1148.52 1556.49 1127.32 1556.49 1088.94V994.392H1579.17V1089.16ZM728.18 1014.74H678.147V1145.34H655.04V1014.74H605.008V994.392H728.18V1014.74ZM878.796 1145.34H856.111V994.392H878.796V1145.34ZM1010.95 1014.74H960.919V1145.34H937.812V1014.74H887.779V994.392H1010.95V1014.74ZM1125.49 1145.34H1102.8V1083.22H1058.92C1042.17 1083.22 1034.11 1089.58 1033.27 1109.93L1032.63 1126.04C1032.42 1133.89 1031.36 1140.67 1028.18 1145.34H1004.86C1008.04 1140.46 1009.52 1133.46 1009.95 1126.89L1011.43 1103.36C1012.07 1087.67 1017.58 1077.07 1033.05 1072.62C1017.37 1067.53 1007.61 1055.02 1007.61 1036.16C1007.61 1009.87 1027.75 994.392 1059.55 994.392H1125.49V1145.34ZM1276.1 1145.34H1252.57L1237.94 1106.12H1170.1L1155.26 1145.34H1131.31L1191.09 994.392H1217.17L1276.1 1145.34ZM1409.09 1145.34H1312.41V1124.98H1386.4V994.392H1409.09V1145.34ZM1559.7 1145.34H1536.17L1521.54 1106.12H1453.7L1438.86 1145.34H1414.91L1474.69 994.392H1500.77L1559.7 1145.34ZM1845.74 1145.34H1823.06V994.392H1845.74V1145.34ZM1907.67 1082.16C1912.34 1095.94 1917 1109.93 1921.24 1123.71C1925.27 1109.93 1929.93 1095.94 1934.81 1082.16L1966.4 994.392H1990.35L1934.17 1145.34H1908.31L1853.19 994.392H1876.72L1907.67 1082.16ZM2166 1040.18C2166 1061.6 2166 1087.67 2165.15 1116.29C2173.42 1101.66 2185.08 1082.58 2194.62 1067.53L2241.26 994.392H2267.34V1145.34H2245.29V1099.54C2245.29 1078.13 2245.29 1052.06 2246.14 1023.65C2238.08 1038.28 2226.63 1056.51 2216.67 1072.2L2170.24 1145.34H2144.17V994.392H2166V1040.18ZM2310.04 1145.34H2287.36V994.392H2310.04V1145.34ZM2092.82 1094.88H2030.7V1076.44H2092.82V1094.88ZM1204.23 1016.23C1196.6 1037.22 1186.85 1062.66 1180.7 1078.13L1177.52 1086.4H1230.73L1227.55 1078.13C1221.62 1062.66 1211.87 1037.22 1204.23 1016.23ZM1487.83 1016.23C1480.2 1037.22 1470.45 1062.66 1464.3 1078.13L1461.12 1086.4H1514.33L1511.15 1078.13C1505.22 1062.66 1495.47 1037.22 1487.83 1016.23ZM1060.83 1013.9C1042.59 1013.9 1030.93 1021.53 1030.93 1038.28C1030.93 1055.66 1042.59 1064.35 1059.13 1064.35H1102.8V1013.9H1060.83ZM488.856 826C522.352 826 542.28 842.324 542.28 866.916C542.28 894.264 522.565 905.925 495.217 911.437L482.284 914.192C457.056 919.704 448.152 925.852 448.152 939.208C448.152 955.744 460.661 964.437 482.921 964.437C505.817 964.436 523.625 956.591 524.049 930.516H546.732C546.52 966.98 521.293 983.728 483.345 983.729C446.457 983.729 424.62 966.556 424.62 938.572C424.62 915.676 437.977 902.108 473.169 894.688L486.312 891.932C512.176 886.208 519.173 879.848 519.173 866.492C519.173 853.56 508.996 845.292 488.645 845.292C461.297 845.292 452.604 855.892 451.332 873.7H428.86C429.496 847.412 445.396 826 488.856 826ZM1430.83 826C1475.35 826 1504.6 857.8 1504.6 904.864C1504.6 951.928 1475.35 983.728 1430.83 983.729C1386.52 983.729 1357.26 951.928 1357.26 904.864C1357.26 857.8 1386.52 826 1430.83 826ZM2283.79 826C2328.31 826 2357.57 857.8 2357.57 904.864C2357.57 951.928 2328.31 983.729 2283.79 983.729C2239.48 983.728 2210.23 951.928 2210.23 904.864C2210.23 857.8 2239.48 826 2283.79 826ZM315.662 924.156C315.662 951.08 329.866 963.588 354.034 963.588C378.202 963.588 392.406 951.08 392.406 924.156V829.392H415.091V923.944C415.091 962.316 391.982 983.516 354.034 983.516C315.874 983.516 292.979 962.316 292.979 923.944V829.392H315.662V924.156ZM145.577 980.336H48.9053V959.984H122.894V829.392H145.577V980.336ZM296.193 980.336H272.661L258.033 941.116H190.193L175.354 980.336H151.397L211.182 829.392H237.257L296.193 980.336ZM582.23 980.336H559.547V829.392H582.23V980.336ZM644.163 917.16C648.827 930.94 653.491 944.932 657.731 958.712C661.759 944.932 666.423 930.94 671.299 917.16L702.887 829.392H726.843L670.663 980.336H644.799L589.679 829.392H613.211L644.163 917.16ZM992.856 980.336H970.173V918.22H926.289C909.541 918.22 901.485 924.58 900.637 944.932L900.001 961.044C899.789 968.888 898.729 975.672 895.549 980.336H872.229C875.408 975.46 876.892 968.464 877.316 961.892L878.801 938.36C879.437 922.672 884.949 912.072 900.425 907.62C884.737 902.532 874.984 890.024 874.984 871.156C874.984 844.868 895.125 829.392 926.925 829.392H992.856V980.336ZM1112.58 980.336H1005.52V959.984H1089.89V912.284H1012.94V892.356H1089.89V849.744H1004.88V829.392H1112.58V980.336ZM1240.48 849.744H1198.08C1183.66 849.744 1169.25 849.744 1154.83 849.32C1163.74 860.344 1172.85 871.369 1181.54 882.604L1243.87 961.044V980.336H1124.73V959.984H1172.21C1186.84 959.984 1201.26 959.984 1215.68 960.408C1206.56 949.384 1197.65 938.36 1188.75 927.124L1126.21 848.684V829.392H1240.48V849.744ZM1343.74 980.336H1247.07V959.984H1321.06V829.392H1343.74V980.336ZM1540.87 892.356H1618.68V829.392H1641.36V980.336H1618.68V913.132H1540.87V980.336H1518.19V829.392H1540.87V892.356ZM1805.76 849.744H1763.36C1748.94 849.744 1734.53 849.744 1720.11 849.32C1729.01 860.344 1738.13 871.369 1746.82 882.604L1809.15 961.044V980.336H1690.01V959.984H1737.49C1752.12 959.984 1766.54 959.984 1780.95 960.408C1771.84 949.384 1762.93 938.36 1754.03 927.124L1691.49 848.684V829.392H1805.76V849.744ZM1843.29 875.184C1843.29 896.596 1843.29 922.672 1842.45 951.292C1850.71 936.664 1862.37 917.584 1871.91 902.532L1918.55 829.392H1944.63V980.336H1922.58V934.544C1922.58 913.132 1922.58 887.056 1923.43 858.648C1915.37 873.276 1903.92 891.508 1893.96 907.196L1847.53 980.336H1821.46V829.392H1843.29V875.184ZM2064.35 980.336H1957.29V959.984H2041.67V912.284H1964.71V892.356H2041.67V849.744H1956.66V829.392H2064.35V980.336ZM2196.7 980.336H2174.02V918.22H2130.13C2113.39 918.22 2105.33 924.58 2104.48 944.932L2103.85 961.044C2103.63 968.888 2102.57 975.672 2099.39 980.336H2076.07C2079.25 975.46 2080.74 968.464 2081.16 961.892L2082.65 938.36C2083.28 922.672 2088.79 912.072 2104.27 907.62C2088.58 902.532 2078.83 890.024 2078.83 871.156C2078.83 844.868 2098.97 829.392 2130.77 829.392H2196.7V980.336ZM2443.81 980.336H2347.13V959.984H2421.12V829.392H2443.81V980.336ZM1430.83 846.353C1400.73 846.353 1380.8 868.824 1380.8 904.864C1380.8 940.904 1400.73 963.376 1430.83 963.376C1461.14 963.376 1481.07 940.904 1481.07 904.864C1481.07 868.824 1461.14 846.353 1430.83 846.353ZM2283.79 846.353C2253.69 846.353 2233.76 868.824 2233.76 904.864C2233.76 940.904 2253.69 963.376 2283.79 963.376C2314.11 963.376 2334.03 940.904 2334.03 904.864C2334.03 868.824 2314.11 846.353 2283.79 846.353ZM829.311 929.88H767.194V911.437H829.311V929.88ZM224.325 851.229C216.693 872.216 206.941 897.656 200.793 913.132L197.613 921.4H250.825L247.646 913.132C241.71 897.656 231.957 872.216 224.325 851.229ZM928.196 848.896C909.965 848.897 898.305 856.528 898.305 873.276C898.305 890.66 909.965 899.352 926.501 899.352H970.173V848.896H928.196ZM2132.04 848.896C2113.81 848.896 2102.15 856.528 2102.15 873.276C2102.15 890.66 2113.81 899.351 2130.35 899.352H2174.02V848.896H2132.04ZM180.414 661C213.91 661 233.838 677.324 233.838 701.916C233.838 729.264 214.121 740.925 186.773 746.437L173.842 749.192C148.614 754.704 139.71 760.852 139.71 774.208C139.71 790.744 152.218 799.437 174.478 799.437C197.374 799.437 215.181 791.592 215.605 765.516H238.29C238.078 801.98 212.849 818.729 174.901 818.729C138.014 818.728 116.178 801.556 116.178 773.572C116.178 750.676 129.534 737.108 164.726 729.688L177.87 726.932C203.734 721.208 210.729 714.848 210.729 701.492C210.729 688.56 200.554 680.292 180.202 680.292C152.854 680.292 144.162 690.892 142.89 708.7H120.418C121.054 682.412 136.954 661 180.414 661ZM1147.36 661C1180.85 661 1200.78 677.324 1200.78 701.916C1200.78 729.264 1181.07 740.924 1153.72 746.437L1140.79 749.192C1115.56 754.704 1106.65 760.852 1106.65 774.208C1106.65 790.744 1119.16 799.436 1141.42 799.437C1164.32 799.437 1182.13 791.592 1182.55 765.516H1205.23C1205.02 801.98 1179.79 818.728 1141.85 818.729C1104.96 818.729 1083.12 801.556 1083.12 773.572C1083.12 750.676 1096.48 737.108 1131.67 729.688L1144.81 726.932C1170.68 721.208 1177.67 714.848 1177.67 701.492C1177.67 688.56 1167.5 680.292 1147.15 680.292C1119.8 680.292 1111.11 690.892 1109.83 708.7H1087.36C1088 682.412 1103.9 661 1147.36 661ZM1793.67 661C1832.04 661 1851.54 691.74 1851.54 741.136C1851.54 768.908 1846.88 793.712 1828.44 808.128C1819.75 814.7 1807.87 818.729 1794.09 818.729C1761.44 818.728 1740.25 797.104 1740.25 767.212C1740.25 739.44 1758.69 716.544 1791.76 716.544C1807.02 716.544 1821.44 724.176 1829.71 736.684C1828.86 698.312 1817.41 679.656 1793.46 679.656C1777.98 679.656 1767.17 687.288 1764.2 702.34H1742.37C1746.61 676.264 1766.11 661 1793.67 661ZM2225.46 661C2269.98 661 2299.24 692.8 2299.24 739.864C2299.24 786.928 2269.98 818.729 2225.46 818.729C2181.16 818.728 2151.9 786.928 2151.9 739.864C2151.9 692.8 2181.16 661 2225.46 661ZM2372.58 661C2414.34 661 2443.81 691.104 2443.81 739.864C2443.81 788.624 2414.13 818.728 2372.58 818.729C2339.93 818.729 2309.82 799.224 2305.58 759.58H2328.27C2331.87 786.292 2352.01 798.588 2372.58 798.588C2401.41 798.588 2420.27 776.752 2420.27 739.864C2420.27 702.976 2401.41 681.14 2372.58 681.14C2353.07 681.14 2335.48 690.468 2329.33 714.424H2306.43C2313.64 677.536 2341.2 661 2372.58 661ZM974.163 759.156C974.163 786.08 988.367 798.588 1012.54 798.588C1036.7 798.588 1050.91 786.08 1050.91 759.156V664.392H1073.59V758.944C1073.59 797.316 1050.48 818.516 1012.54 818.516C974.375 818.516 951.48 797.316 951.479 758.944V664.392H974.163V759.156ZM123.172 684.744H73.1406V815.336H50.0322V684.744H0V664.392H123.172V684.744ZM273.788 815.336H251.104V664.392H273.788V815.336ZM405.943 684.744H355.912V815.336H332.804V684.744H282.771V664.392H405.943V684.744ZM520.479 815.336H497.794V753.22H453.91C437.162 753.22 429.106 759.58 428.258 779.932L427.622 796.044C427.41 803.888 426.35 810.672 423.17 815.336H399.851C403.03 810.46 404.514 803.463 404.938 796.892L406.422 773.36C407.058 757.672 412.57 747.072 428.046 742.62C412.358 737.532 402.607 725.024 402.606 706.156C402.606 679.868 422.746 664.392 454.546 664.392H520.479V815.336ZM671.095 815.336H647.562L632.935 776.116H565.095L550.254 815.336H526.298L586.082 664.392H612.158L671.095 815.336ZM804.078 815.336H707.406V794.984H781.394V664.392H804.078V815.336ZM954.694 815.336H931.162L916.534 776.116H848.694L833.854 815.336H809.898L869.682 664.392H895.758L954.694 815.336ZM1240.73 815.336H1218.05V664.392H1240.73V815.336ZM1302.66 752.16C1307.33 765.94 1311.99 779.932 1316.23 793.712C1320.26 779.932 1324.92 765.94 1329.8 752.16L1361.39 664.392H1385.34L1329.16 815.336H1303.3L1248.18 664.392H1271.71L1302.66 752.16ZM1629.42 684.108H1554.16C1586.81 721.632 1604.2 764.032 1605.26 815.336H1581.94C1580.66 762.76 1565.19 720.996 1529.57 682.412V664.392H1629.42V684.108ZM1680.31 661C1714.01 661 1732.46 679.656 1732.25 711.032H1709.99C1709.99 689.62 1698.75 680.716 1680.94 680.716C1663.14 680.716 1653.38 691.104 1653.38 705.944C1653.38 720.572 1661.02 729.476 1678.82 739.016L1696 748.556C1726.31 764.032 1730.76 786.716 1731.82 805.796L1732.46 815.336H1628.16V795.62H1707.02C1705.96 780.568 1697.9 772.724 1682 763.82L1666.95 755.34C1641.72 741.772 1630.06 726.508 1630.06 705.096C1630.06 679.444 1649.78 661 1680.31 661ZM1880.61 815.336H1854.96V790.108H1880.61V815.336ZM1996.09 815.336H1889.03V794.984H1973.41V747.284H1896.45V727.356H1973.41V684.744H1888.39V664.392H1996.09V815.336ZM2138.38 815.336H2084.53C2037.25 815.336 2009.69 786.504 2009.69 739.864C2009.69 693.224 2037.25 664.392 2084.53 664.392H2138.38V815.336ZM1794.09 735.2C1775.86 735.2 1762.93 748.556 1762.93 767.424C1762.93 786.292 1775.86 799.436 1794.09 799.437C1812.32 799.437 1825.47 786.504 1825.47 767.424C1825.47 748.132 1812.32 735.2 1794.09 735.2ZM2225.46 681.353C2195.36 681.353 2175.43 703.824 2175.43 739.864C2175.43 775.904 2195.36 798.376 2225.46 798.376C2255.78 798.376 2275.71 775.904 2275.71 739.864C2275.71 703.824 2255.78 681.353 2225.46 681.353ZM2084.74 684.32C2051.46 684.32 2033.44 704.672 2033.44 739.864C2033.44 775.056 2051.46 795.408 2084.74 795.408H2115.69V684.32H2084.74ZM1487.81 764.88H1425.7V746.437H1487.81V764.88ZM599.227 686.229C591.595 707.216 581.842 732.656 575.694 748.132L572.515 756.4H625.727L622.546 748.132C616.61 732.656 606.858 707.216 599.227 686.229ZM882.826 686.229C875.194 707.216 865.442 732.656 859.294 748.132L856.114 756.4H909.326L906.146 748.132C900.211 732.656 890.458 707.216 882.826 686.229ZM455.818 683.896C437.586 683.896 425.926 691.528 425.926 708.276C425.926 725.66 437.586 734.352 454.122 734.352H497.794V683.896H455.818ZM537.646 496C582.166 496 611.423 527.8 611.423 574.864C611.423 621.928 582.166 653.729 537.646 653.729C493.339 653.728 464.083 621.928 464.083 574.864C464.083 527.8 493.339 496 537.646 496ZM2372.58 496C2414.34 496 2443.81 526.104 2443.81 574.864C2443.81 623.624 2414.13 653.728 2372.58 653.729C2339.93 653.729 2309.82 634.224 2305.58 594.58H2328.27C2331.87 621.292 2352.01 633.588 2372.58 633.588C2401.41 633.588 2420.27 611.752 2420.27 574.864C2420.27 537.976 2401.41 516.14 2372.58 516.14C2353.07 516.14 2335.48 525.468 2329.33 549.424H2306.43C2313.64 512.536 2341.2 496 2372.58 496ZM954.968 594.156C954.968 621.08 969.172 633.588 993.34 633.588C1017.51 633.588 1031.71 621.08 1031.71 594.156V499.392H1054.4V593.944C1054.4 632.316 1031.29 653.515 993.34 653.516C955.18 653.516 932.283 632.316 932.283 593.944V499.392H954.968V594.156ZM647.77 650.336H625.085V499.392H647.77V650.336ZM775.67 519.744H733.27C718.854 519.744 704.438 519.744 690.022 519.32C698.926 530.344 708.042 541.369 716.734 552.604L779.062 631.044V650.336H659.918V629.984H707.406C722.034 629.984 736.45 629.984 750.866 630.408C741.75 619.384 732.846 608.36 723.942 597.124L661.402 518.684V499.392H775.67V519.744ZM813.206 545.184C813.206 566.596 813.205 592.672 812.357 621.292C820.625 606.664 832.285 587.584 841.825 572.532L888.466 499.392H914.542V650.336H892.493V604.544C892.493 583.132 892.494 557.056 893.342 528.648C885.286 543.276 873.838 561.508 863.874 577.196L817.445 650.336H791.369V499.392H813.206V545.184ZM1133.78 577.62C1139.08 592.036 1145.23 609.633 1149.47 622.353C1153.71 610.057 1159.65 593.944 1164.95 579.74L1195.9 499.392H1227.27V650.336H1205.44V603.06C1205.44 581.86 1205.44 555.572 1206.29 527.164C1202.47 538.612 1198.65 548.576 1193.78 561.508L1159.22 650.336H1140.14L1106.01 561.508C1100.92 548.364 1097.11 538.188 1093.29 526.528C1094.14 555.148 1094.14 581.648 1094.14 603.06V650.336H1072.3V499.392H1103.89L1133.78 577.62ZM1306.48 650.336H1283.79V499.392H1306.48V650.336ZM1448.76 650.336H1394.92C1347.64 650.336 1320.08 621.504 1320.08 574.864C1320.08 528.224 1347.64 499.392 1394.92 499.392H1448.76V650.336ZM1639.4 650.336H1615.86L1601.24 611.116H1533.4L1518.56 650.336H1494.6L1554.38 499.392H1580.46L1639.4 650.336ZM1667.05 545.184C1667.05 566.596 1667.05 592.672 1666.2 621.292C1674.47 606.664 1686.13 587.584 1695.67 572.532L1742.31 499.392H1768.39V650.336H1746.34V604.544C1746.34 583.132 1746.34 557.056 1747.19 528.648C1739.13 543.276 1727.68 561.508 1717.72 577.196L1671.29 650.336H1645.22V499.392H1667.05V545.184ZM1811.09 650.336H1788.41V499.392H1811.09V650.336ZM1943.45 650.336H1920.76V588.22H1876.88C1860.13 588.22 1852.07 594.58 1851.23 614.932L1850.59 631.044C1850.38 638.888 1849.32 645.672 1846.14 650.336H1822.82C1826 645.46 1827.48 638.464 1827.91 631.892L1829.39 608.36C1830.03 592.672 1835.54 582.072 1851.01 577.62C1835.33 572.532 1825.57 560.024 1825.57 541.156C1825.57 514.868 1845.71 499.392 1877.51 499.392H1943.45V650.336ZM2063.17 650.336H1956.11V629.984H2040.48V582.284H1963.53V562.356H2040.48V519.744H1955.47V499.392H2063.17V650.336ZM2195.32 519.744H2145.29V650.336H2122.18V519.744H2072.15V499.392H2195.32V519.744ZM2311.77 650.336H2288.24L2273.61 611.116H2205.77L2190.93 650.336H2166.97L2226.75 499.392H2252.83L2311.77 650.336ZM537.646 516.353C507.543 516.353 487.615 538.824 487.615 574.864C487.615 610.904 507.543 633.376 537.646 633.376C567.962 633.376 587.891 610.904 587.891 574.864C587.891 538.824 567.962 516.353 537.646 516.353ZM1395.13 519.32C1361.84 519.32 1343.83 539.672 1343.83 574.864C1343.83 610.056 1361.84 630.408 1395.13 630.408H1426.08V519.32H1395.13ZM455.445 599.88H393.33V581.437H455.445V599.88ZM1567.53 521.229C1559.9 542.216 1550.14 567.656 1544 583.132L1540.82 591.4H1594.03L1590.85 583.132C1584.91 567.656 1575.16 542.216 1567.53 521.229ZM2239.9 521.229C2232.27 542.216 2222.52 567.656 2216.37 583.132L2213.19 591.4H2266.4L2263.22 583.132C2257.28 567.656 2247.53 542.216 2239.9 521.229ZM1878.79 518.896C1860.55 518.897 1848.89 526.528 1848.89 543.276C1848.89 560.66 1860.55 569.352 1877.09 569.352H1920.76V518.896H1878.79ZM1207.96 331C1249.72 331 1279.19 361.104 1279.19 409.864C1279.19 458.624 1249.51 488.728 1207.96 488.728C1175.31 488.728 1145.21 469.224 1140.97 429.58H1163.65C1167.26 456.292 1187.4 468.588 1207.96 468.588C1236.79 468.588 1255.66 446.752 1255.66 409.864C1255.66 372.976 1236.79 351.14 1207.96 351.14C1188.46 351.14 1170.86 360.468 1164.71 384.424H1141.82C1149.03 347.536 1176.59 331 1207.96 331ZM1962.31 331C2006.83 331 2036.09 362.8 2036.09 409.864C2036.09 456.928 2006.83 488.728 1962.31 488.728C1918.01 488.727 1888.75 456.928 1888.75 409.864C1888.75 362.8 1918.01 331 1962.31 331ZM2202.51 429.156C2202.51 456.08 2216.71 468.588 2240.88 468.588C2265.05 468.588 2279.25 456.08 2279.25 429.156V334.392H2301.94V428.944C2301.94 467.316 2278.83 488.516 2240.88 488.516C2202.72 488.516 2179.82 467.316 2179.82 428.944V334.392H2202.51V429.156ZM206.398 485.336H183.715V334.392H206.398V485.336ZM268.331 422.16C272.995 435.94 277.658 449.932 281.898 463.712C285.926 449.932 290.591 435.94 295.467 422.16L327.055 334.392H351.011L294.831 485.336H268.967L213.847 334.392H237.379L268.331 422.16ZM380.53 380.184C380.53 401.596 380.53 427.672 379.682 456.292C387.95 441.664 399.61 422.584 409.15 407.532L455.79 334.392H481.866V485.336H459.818V439.544C459.818 418.132 459.818 392.056 460.666 363.648C452.61 378.276 441.162 396.508 431.198 412.196L384.77 485.336H358.694V334.392H380.53V380.184ZM601.588 485.336H494.528V464.984H578.904V417.284H501.948V397.356H578.904V354.744H493.892V334.392H601.588V485.336ZM787.419 485.336H761.768V460.108H787.419V485.336ZM863.03 412.62C868.33 427.036 874.479 444.632 878.719 457.352C882.959 445.056 888.894 428.944 894.194 414.74L925.146 334.392H956.522V485.336H934.687V438.06C934.687 416.86 934.686 390.572 935.534 362.164C931.718 373.612 927.902 383.576 923.026 396.508L888.471 485.336H869.391L835.259 396.508C830.171 383.364 826.354 373.188 822.538 361.528C823.386 390.148 823.387 416.648 823.387 438.06V485.336H801.551V334.392H833.139L863.03 412.62ZM1147.15 485.336H1123.62L1108.99 446.116H1041.15L1026.31 485.336H1002.36L1062.14 334.392H1088.22L1147.15 485.336ZM1315.54 485.336H1292.86V334.392H1315.54V485.336ZM1447.89 485.336H1425.21V423.22H1381.32C1364.57 423.22 1356.52 429.58 1355.67 449.932L1355.03 466.044C1354.82 473.888 1353.76 480.672 1350.58 485.336H1327.26C1330.44 480.46 1331.93 473.464 1332.35 466.892L1333.83 443.36C1334.47 427.672 1339.98 417.072 1355.46 412.62C1339.77 407.532 1330.02 395.024 1330.02 376.156C1330.02 349.868 1350.16 334.392 1381.96 334.392H1447.89V485.336ZM1567.61 485.336H1460.55V464.984H1544.93V417.284H1467.97V397.356H1544.93V354.744H1459.92V334.392H1567.61V485.336ZM1756.68 481.322C1758.45 476.989 1759.37 471.821 1759.69 466.892L1761.17 443.36C1761.81 427.672 1767.32 417.072 1782.8 412.62C1767.11 407.532 1757.36 395.024 1757.36 376.156C1757.36 349.868 1777.5 334.392 1809.3 334.392H1875.23V485.336H1852.54V423.22H1808.66C1791.91 423.22 1783.86 429.58 1783.01 449.932L1782.37 466.044C1782.16 473.888 1781.1 480.672 1777.92 485.336H1734.71L1720.08 446.116H1652.24L1637.4 485.336H1613.45L1673.23 334.392H1699.31L1756.68 481.322ZM2162.08 485.336H2139.4V423.22H2095.51C2078.77 423.22 2070.71 429.58 2069.86 449.932L2069.23 466.044C2069.01 473.888 2067.95 480.672 2064.77 485.336H2041.45C2044.63 480.46 2046.12 473.464 2046.54 466.892L2048.03 443.36C2048.66 427.672 2054.17 417.072 2069.65 412.62C2053.96 407.532 2044.21 395.024 2044.21 376.156C2044.21 349.868 2064.35 334.392 2096.15 334.392H2162.08V485.336ZM2443.81 485.336H2420.27L2405.65 446.116H2337.81L2322.97 485.336H2299.01L2358.79 334.392H2384.87L2443.81 485.336ZM1962.31 351.352C1932.21 351.352 1912.28 373.824 1912.28 409.864C1912.28 445.904 1932.21 468.376 1962.31 468.376C1992.63 468.376 2012.56 445.904 2012.56 409.864C2012.56 373.824 1992.63 351.352 1962.31 351.352ZM714.867 434.88H652.751V416.436H714.867V434.88ZM1075.29 356.228C1067.65 377.216 1057.9 402.656 1051.75 418.132L1048.57 426.4H1101.79L1098.61 418.132C1092.67 402.656 1082.92 377.215 1075.29 356.228ZM1686.38 356.228C1678.74 377.215 1668.99 402.656 1662.84 418.132L1659.66 426.4H1712.88L1709.7 418.132C1703.76 402.656 1694.01 377.215 1686.38 356.228ZM2371.94 356.228C2364.31 377.216 2354.55 402.656 2348.41 418.132L2345.23 426.4H2398.44L2395.26 418.132C2389.32 402.656 2379.57 377.215 2371.94 356.228ZM1383.23 353.896C1365 353.896 1353.34 361.528 1353.34 378.276C1353.34 395.66 1365 404.352 1381.53 404.352H1425.21V353.896H1383.23ZM1810.57 353.896C1792.34 353.897 1780.68 361.528 1780.68 378.276C1780.68 395.66 1792.34 404.352 1808.87 404.352H1852.54V353.896H1810.57ZM2097.42 353.896C2079.19 353.896 2067.53 361.528 2067.53 378.276C2067.53 395.66 2079.19 404.351 2095.73 404.352H2139.4V353.896H2097.42ZM567.104 167C611.623 167 640.879 198.8 640.879 245.864C640.879 292.928 611.623 324.727 567.104 324.728C522.796 324.728 493.539 292.928 493.539 245.864C493.539 198.8 522.796 167 567.104 167ZM994.668 167C1039.4 167 1067.6 198.8 1067.6 245.864C1067.6 292.928 1039.19 324.728 995.939 324.728C974.316 324.728 957.568 316.248 946.756 301.196L942.728 321.336H925.344V242.048H991.063V261.34H946.544C947.392 286.992 968.591 304.588 994.031 304.588C1024.56 304.588 1044.06 281.904 1044.06 245.864C1044.06 209.824 1024.77 187.14 994.456 187.14C971.984 187.14 954.599 199.648 950.359 220.212H927.04C931.916 188.2 957.356 167 994.668 167ZM1416.98 167C1461.71 167 1489.91 198.8 1489.91 245.864C1489.91 292.928 1461.5 324.728 1418.25 324.728C1396.63 324.727 1379.88 316.248 1369.07 301.196L1365.04 321.336H1347.65V242.048H1413.37V261.34H1368.85C1369.7 286.992 1390.9 304.588 1416.34 304.588C1446.87 304.588 1466.37 281.904 1466.37 245.864C1466.37 209.824 1447.08 187.14 1416.77 187.14C1394.29 187.14 1376.91 199.648 1372.67 220.212H1349.35C1354.23 188.2 1379.67 167 1416.98 167ZM2173.65 167C2218.17 167 2247.42 198.8 2247.42 245.864C2247.42 292.928 2218.17 324.727 2173.65 324.728C2129.34 324.728 2100.09 292.928 2100.08 245.864C2100.08 198.8 2129.34 167 2173.65 167ZM2370.88 167C2415.61 167 2443.81 198.8 2443.81 245.864C2443.81 292.928 2415.4 324.728 2372.15 324.728C2350.53 324.727 2333.78 316.248 2322.97 301.196L2318.94 321.336H2301.55V242.048H2367.27V261.34H2322.75C2323.6 286.992 2344.8 304.588 2370.24 304.588C2400.77 304.588 2420.27 281.904 2420.27 245.864C2420.27 209.824 2400.98 187.14 2370.67 187.14C2348.2 187.14 2330.81 199.648 2326.57 220.212H2303.25C2308.13 188.2 2333.57 167 2370.88 167ZM767.546 265.156C767.546 292.08 781.75 304.588 805.918 304.588C830.086 304.588 844.29 292.08 844.29 265.156V170.392H866.974V264.944C866.973 303.316 843.866 324.516 805.918 324.516C767.758 324.516 744.862 303.316 744.862 264.944V170.392H767.546V265.156ZM727.12 321.336H630.448V300.984H704.437V170.392H727.12V321.336ZM907.561 321.336H884.877V170.392H907.561V321.336ZM1193.59 321.336H1170.9V259.22H1127.02C1110.27 259.22 1102.21 265.58 1101.37 285.932L1100.73 302.044C1100.52 309.888 1099.46 316.672 1096.28 321.336H1072.96C1076.14 316.46 1077.62 309.463 1078.05 302.892L1079.53 279.36C1080.17 263.672 1085.68 253.072 1101.15 248.62C1085.47 243.532 1075.71 231.024 1075.71 212.156C1075.71 185.868 1095.85 170.392 1127.65 170.392H1193.59V321.336ZM1344.2 321.336H1320.67L1306.04 282.116H1238.2L1223.36 321.336H1199.41L1259.19 170.392H1285.27L1344.2 321.336ZM1562.75 321.336H1540.06V170.392H1562.75V321.336ZM1604.74 216.184C1604.74 237.596 1604.74 263.672 1603.89 292.292C1612.16 277.664 1623.82 258.584 1633.36 243.532L1680 170.392H1706.07V321.336H1684.02V275.544C1684.02 254.132 1684.02 228.056 1684.87 199.648C1676.82 214.276 1665.37 232.508 1655.4 248.196L1608.98 321.336H1582.9V170.392H1604.74V216.184ZM1748.06 216.184C1748.06 237.596 1748.06 263.672 1747.21 292.292C1755.48 277.664 1767.14 258.584 1776.68 243.532L1823.32 170.392H1849.4V321.336H1827.35V275.544C1827.35 254.132 1827.35 228.056 1828.2 199.648C1820.14 214.276 1808.69 232.508 1798.73 248.196L1752.3 321.336H1726.22V170.392H1748.06V216.184ZM2000.01 321.336H1976.48L1961.85 282.116H1894.01L1879.17 321.336H1855.22L1915 170.392H1941.08L2000.01 321.336ZM2025.67 258.16C2030.33 271.94 2034.99 285.932 2039.23 299.712C2043.26 285.932 2047.93 271.94 2052.8 258.16L2084.39 170.392H2108.35L2052.17 321.336H2026.3L1971.18 170.392H1994.71L2025.67 258.16ZM2283.77 321.336H2261.09V170.392H2283.77V321.336ZM567.104 187.352C537 187.352 517.071 209.824 517.071 245.864C517.071 281.904 537 304.376 567.104 304.376C597.419 304.376 617.348 281.904 617.348 245.864C617.348 209.824 597.419 187.352 567.104 187.352ZM2173.65 187.352C2143.55 187.352 2123.62 209.824 2123.62 245.864C2123.62 281.904 2143.55 304.376 2173.65 304.376C2203.97 304.376 2223.89 281.904 2223.89 245.864C2223.89 209.824 2203.97 187.352 2173.65 187.352ZM1272.33 192.228C1264.7 213.215 1254.95 238.656 1248.8 254.132L1245.62 262.4H1298.83L1295.65 254.132C1289.72 238.656 1279.97 213.215 1272.33 192.228ZM1928.14 192.228C1920.51 213.215 1910.76 238.656 1904.61 254.132L1901.43 262.4H1954.64L1951.46 254.132C1945.53 238.656 1935.78 213.215 1928.14 192.228ZM1128.93 189.896C1110.69 189.896 1099.03 197.528 1099.03 214.276C1099.03 231.66 1110.69 240.352 1127.23 240.352H1170.9V189.896H1128.93ZM1503.56 0C1545.32 0.000117332 1574.79 30.1044 1574.79 78.8643C1574.79 127.624 1545.11 157.727 1503.56 157.728C1470.91 157.728 1440.8 138.224 1436.56 98.5801H1459.25C1462.85 125.292 1482.99 137.588 1503.56 137.588C1532.39 137.588 1551.26 115.752 1551.26 78.8643C1551.26 41.9764 1532.39 20.1398 1503.56 20.1396C1484.05 20.1396 1466.46 29.468 1460.31 53.4238H1437.41C1444.62 16.5359 1472.18 0 1503.56 0ZM1644.52 0C1678.02 0 1697.95 16.324 1697.95 40.916C1697.95 68.2639 1678.23 79.9235 1650.88 85.4355L1637.95 88.1924C1612.72 93.7044 1603.82 99.8521 1603.82 113.208C1603.82 129.744 1616.33 138.436 1638.59 138.436C1661.48 138.435 1679.29 130.591 1679.71 104.516H1702.4C1702.19 140.98 1676.96 157.727 1639.01 157.728C1602.12 157.728 1580.29 140.556 1580.29 112.572C1580.29 89.6763 1593.64 76.1085 1628.83 68.6885L1641.98 65.9316C1667.84 60.2077 1674.84 53.848 1674.84 40.4922C1674.84 27.5602 1664.66 19.292 1644.31 19.292C1616.96 19.292 1608.27 29.8922 1607 47.7002H1584.53C1585.16 21.4122 1601.06 0 1644.52 0ZM2045.79 0C2090.31 0 2119.57 31.8003 2119.57 78.8643C2119.57 125.928 2090.31 157.728 2045.79 157.728C2001.49 157.727 1972.23 125.928 1972.23 78.8643C1972.23 31.8004 2001.49 0.000219028 2045.79 0ZM2192.9 0C2234.67 5.86661e-05 2264.14 30.1043 2264.14 78.8643C2264.14 127.624 2234.46 157.727 2192.9 157.728C2160.26 157.728 2130.15 138.224 2125.91 98.5801H2148.6C2152.2 125.292 2172.34 137.588 2192.9 137.588C2221.74 137.588 2240.6 115.752 2240.6 78.8643C2240.6 41.9763 2221.74 20.1397 2192.9 20.1396C2173.4 20.1396 2155.8 29.4679 2149.66 53.4238H2126.76C2133.97 16.5359 2161.53 0 2192.9 0ZM661.272 154.336H637.74L623.112 115.116H555.272L540.433 154.336H516.477L576.26 3.3916H602.336L661.272 154.336ZM688.929 49.1836C688.929 70.5956 688.928 96.672 688.08 125.292C696.348 110.664 708.008 91.5842 717.548 76.5322L764.188 3.3916H790.265V154.336H768.216V108.544C768.216 87.1321 768.216 61.0562 769.064 32.6484C761.008 47.2764 749.561 65.5084 739.597 81.1963L693.168 154.336H667.092V3.3916H688.929V49.1836ZM832.252 49.1836C832.252 70.5956 832.252 96.672 831.404 125.292C839.672 110.664 851.332 91.5841 860.872 76.5322L907.512 3.3916H933.588V154.336H911.54V108.544C911.54 87.1321 911.54 61.0562 912.388 32.6484C904.332 47.2764 892.884 65.5084 882.92 81.1963L836.492 154.336H810.416V3.3916H832.252V49.1836ZM1084.2 154.336H1060.67L1046.04 115.116H978.204L963.364 154.336H939.408L999.191 3.3916H1025.27L1084.2 154.336ZM1151.38 81.6201C1156.68 96.0359 1162.83 113.632 1167.07 126.352C1171.31 114.056 1177.24 97.9441 1182.54 83.7402L1213.5 3.3916H1244.87V154.336H1223.04V107.06C1223.04 85.8597 1223.04 59.5718 1223.88 31.1641C1220.07 42.612 1216.25 52.576 1211.38 65.5078L1176.82 154.336H1157.74L1123.61 65.5078C1118.52 52.3641 1114.7 42.1881 1110.89 30.5283C1111.74 59.148 1111.74 85.6477 1111.74 107.06V154.336H1089.9V3.3916H1121.49L1151.38 81.6201ZM1395.49 154.336H1371.96L1357.33 115.116H1289.49L1274.65 154.336H1250.69L1310.48 3.3916H1336.55L1395.49 154.336ZM1423.86 154.336H1401.18V3.3916H1423.86V154.336ZM1851.41 154.336H1744.35V133.984H1828.72V86.2842H1751.77V66.3564H1828.72V23.7441H1743.71V3.3916H1851.41V154.336ZM1958.71 154.336H1862.04V133.984H1936.02V3.3916H1958.71V154.336ZM2300.48 154.336H2277.8V3.3916H2300.48V154.336ZM2342.47 49.1836C2342.47 70.5956 2342.47 96.672 2341.62 125.292C2349.89 110.664 2361.55 91.5842 2371.09 76.5322L2417.73 3.3916H2443.81V154.336H2421.76V108.544C2421.76 87.1321 2421.76 61.0562 2422.61 32.6484C2414.55 47.2764 2403.1 65.5084 2393.14 81.1963L2346.71 154.336H2320.63V3.3916H2342.47V49.1836ZM2045.79 20.3516C2015.69 20.3518 1995.76 42.8244 1995.76 78.8643C1995.76 114.904 2015.69 137.376 2045.79 137.376C2076.11 137.376 2096.04 114.904 2096.04 78.8643C2096.04 42.8243 2076.11 20.3516 2045.79 20.3516ZM522.581 103.88H460.465V85.4355H522.581V103.88ZM589.404 25.2275C581.772 46.2155 572.02 71.6558 565.872 87.1318L562.692 95.4004H615.904L612.725 87.1318C606.789 71.6558 597.036 46.2155 589.404 25.2275ZM1012.34 25.2275C1004.7 46.2155 994.952 71.6558 988.804 87.1318L985.624 95.4004H1038.84L1035.66 87.1318C1029.72 71.6558 1019.97 46.2155 1012.34 25.2275ZM1323.62 25.2275C1315.99 46.2154 1306.24 71.6558 1300.09 87.1318L1296.91 95.4004H1350.12L1346.94 87.1318C1341 71.6558 1331.25 46.2154 1323.62 25.2275Z" fill="#FBFBFB"/>
</svg>
