<svg width="1056" height="1056" viewBox="0 0 1056 1056" fill="none" xmlns="http://www.w3.org/2000/svg">
<path d="M460.028 733.868L454.645 732.184L460.805 712.485L466.073 714.133L465.314 716.829C467.281 715.097 469.474 714.651 471.993 715.439C476.078 716.716 477.598 720.167 476.261 724.443L472.13 737.652L466.747 735.969L470.496 723.981C471.14 721.92 470.592 720.323 468.683 719.726C466.392 719.01 464.242 720.391 463.323 723.331L460.028 733.868Z" fill="black"/>
<path d="M491.852 720.064C497.948 721.193 501.383 726.588 500.247 732.724C499.111 738.86 493.972 742.668 487.875 741.539C481.779 740.41 478.344 735.015 479.48 728.879C480.616 722.743 485.755 718.935 491.852 720.064ZM491.05 724.391C487.943 723.815 485.55 725.976 484.829 729.869C484.108 733.763 485.569 736.637 488.676 737.213C491.784 737.788 494.177 735.628 494.898 731.734C495.619 727.84 494.158 724.966 491.05 724.391Z" fill="black"/>
<path d="M507.75 743.876L501.763 743.471L511.623 719.762C513.063 716.251 514.878 715.491 517.791 715.688L522.5 716.006L522.177 720.795L519.463 720.612C517.787 720.499 516.954 720.963 516.431 722.171L516.194 722.716L522.755 744.889L516.57 744.471L513.56 732.641L513.123 729.605L507.75 743.876Z" fill="black"/>
<path d="M536.023 733.685L535.929 732.729L550.818 731.27C550.274 728.188 548.303 726.532 545.517 726.805C543.566 726.997 542.298 728.005 541.797 729.863L536.185 730.011C537.141 725.416 540.35 722.891 544.968 722.438C551.775 721.771 556.145 726.166 556.762 732.455C557.351 738.467 553.99 743.539 547.7 744.155C541.609 744.752 536.729 740.89 536.023 733.685ZM547.099 740.074C549.647 739.825 551.23 737.941 551.232 735.087L542.116 735.981C542.715 738.816 544.551 740.324 547.099 740.074Z" fill="black"/>
<path d="M570.588 748.159L565.08 749.372L558.95 721.56L563.833 720.484L564.579 722.941C565.481 720.53 567.241 719.036 569.741 718.485C574.819 717.366 579.369 720.91 580.798 727.394C582.253 733.996 579.442 738.711 574.871 739.719C572.293 740.287 570.19 739.849 568.453 738.471L570.588 748.159ZM569.637 723.587C566.98 724.173 565.622 726.93 566.423 730.563C567.223 734.195 569.606 736.087 572.263 735.501C574.919 734.916 576.295 732.237 575.485 728.565C574.667 724.854 572.293 723.002 569.637 723.587Z" fill="black"/>
<path d="M594.028 737.009L595.547 741.898L590.161 743.572L588.642 738.683L594.028 737.009ZM587.094 714.702L593.22 734.411L587.834 736.085L581.708 716.376L587.094 714.702Z" fill="black"/>
<path d="M598.489 709.525C603.725 707.429 607.632 708.578 609.751 712.47L605.035 714.574C603.979 712.799 602.249 712.242 599.761 713.239C597.793 714.027 596.575 715.29 597.155 716.738C597.571 717.778 598.574 718.023 600.453 717.658L604.538 716.884C608.586 716.125 611.179 717.327 612.353 720.261C613.9 724.123 611.799 727.808 607.083 729.696C602.441 731.555 598.333 730.442 596.349 726.885L600.991 724.811C601.92 726.378 603.732 726.815 605.7 726.027C607.446 725.328 608.232 724.065 607.742 722.84C607.34 721.837 606.308 721.518 604.815 721.771L600.351 722.568C596.214 723.319 593.733 722.288 592.543 719.317C590.922 715.27 593.328 711.592 598.489 709.525Z" fill="black"/>
<path d="M626.743 720.603C622.978 722.638 619.446 721.318 617.316 717.376L610.738 705.199L615.7 702.519L621.67 713.569C622.697 715.47 624.223 716.191 625.983 715.24C628.094 714.099 628.605 711.595 627.141 708.886L621.894 699.172L626.856 696.492L636.667 714.651L631.81 717.275L630.409 714.849C630.277 717.466 629.066 719.348 626.743 720.603Z" fill="black"/>
<path d="M648.113 710.737L650.918 715.02L646.199 718.11L643.394 713.826L648.113 710.737ZM635.315 691.194L646.623 708.461L641.904 711.551L630.597 694.284L635.315 691.194Z" fill="black"/>
<path d="M567.5 342.509C561.984 341.334 559.379 338.203 559.787 333.791L564.875 334.67C564.764 336.732 565.891 338.158 568.512 338.716C570.586 339.158 572.301 338.787 572.626 337.261C572.859 336.166 572.162 335.404 570.399 334.66L566.575 333.028C562.79 331.404 561.306 328.961 561.964 325.871C562.831 321.802 566.628 319.911 571.597 320.969C576.487 322.011 579.279 325.223 578.946 329.283L573.936 328.42C574.037 326.601 572.775 325.228 570.702 324.787C568.863 324.395 567.506 325.006 567.231 326.297C567.006 327.353 567.686 328.193 569.067 328.815L573.218 330.639C577.073 332.319 578.559 334.558 577.892 337.688C576.984 341.952 572.938 343.667 567.5 342.509Z" fill="black"/>
<path d="M552.339 315.324L552.997 310.247L558.591 310.972L557.932 316.049L552.339 315.324ZM549.335 338.49L551.989 318.022L557.582 318.747L554.928 339.215L549.335 338.49Z" fill="black"/>
<path d="M536.802 308.959L536.853 314.239L528.333 314.32L528.554 337.519L522.635 337.575L522.413 314.376L513.854 314.458L513.803 309.178L536.802 308.959Z" fill="black"/>
<path d="M502.658 333.631L516.437 331.964L517.071 337.206L497.415 339.584L493.995 311.31L499.872 310.599L502.658 333.631Z" fill="black"/>
<path d="M484.805 317.163C487.431 319.107 489.473 322.186 490.486 326.262C492.712 335.23 488.326 342.46 480.95 344.291C478.349 344.937 475.807 344.827 473.499 343.998L471.99 347.547L468.606 346.202L470.233 342.295C467.471 340.302 465.303 337.049 464.243 332.778C462.025 323.85 466.324 316.93 473.7 315.098C476.418 314.423 479.124 314.534 481.577 315.45L482.921 312.231L486.305 313.575L484.805 317.163ZM469.988 331.352C470.547 333.603 471.417 335.448 472.579 336.808L479.474 320.424C478.127 319.81 476.565 319.662 474.934 320.067C470.392 321.195 468.59 325.723 469.988 331.352ZM479.716 339.322C484.258 338.194 486.196 333.551 484.74 327.689C484.249 325.709 483.465 324.048 482.439 322.737L475.574 339.073C476.815 339.589 478.241 339.689 479.716 339.322Z" fill="black"/>
<path d="M458.041 325.304L444.831 330.513L447.076 336.206L458.611 331.657L460.548 336.569L449.013 341.118L453.341 352.095L447.834 354.267L437.386 327.773L456.104 320.392L458.041 325.304Z" fill="black"/>
</svg>
