<svg width="1056" height="1056" viewBox="0 0 1056 1056" fill="none" xmlns="http://www.w3.org/2000/svg">
<path d="M959.017 818.5L955.741 823.526L939.867 803.343C937.506 800.372 937.73 798.417 939.324 795.971L941.902 792.017L945.923 794.638L944.438 796.916C943.52 798.324 943.519 799.278 944.318 800.324L944.678 800.797L967.23 805.9L963.844 811.094L952.052 807.943L949.189 806.841L959.017 818.5Z" fill="black"/>
<path d="M977.642 803.791L974.769 808.644L950.26 794.138L952.807 789.835L955.112 790.967C953.966 788.662 954.076 786.356 955.38 784.153C958.028 779.678 963.724 778.773 969.438 782.155C975.255 785.598 976.782 790.871 974.398 794.899C973.054 797.171 971.298 798.409 969.105 798.738L977.642 803.791ZM959.037 787.712C957.651 790.053 958.739 792.928 961.94 794.822C965.141 796.717 968.15 796.267 969.536 793.926C970.921 791.586 969.903 788.752 966.667 786.836C963.397 784.901 960.422 785.371 959.037 787.712Z" fill="black"/>
<path d="M965.001 767.127C967.932 761.664 974.118 760.035 979.616 762.986C985.115 765.936 987.177 771.991 984.245 777.454C981.313 782.917 975.128 784.546 969.63 781.596C964.131 778.645 962.069 772.59 965.001 767.127ZM968.878 769.208C967.384 771.992 968.713 774.93 972.202 776.802C975.691 778.675 978.874 778.158 980.368 775.374C981.862 772.589 980.533 769.652 977.044 767.779C973.555 765.907 970.372 766.423 968.878 769.208Z" fill="black"/>
<path d="M993.431 759.652C991.393 763.865 986.155 765.507 980.07 762.563C974.092 759.671 971.698 754.425 973.963 749.744C975.078 747.44 976.939 746.074 979.493 745.754L977.276 744.459L979.453 739.958L1005.09 752.362L1002.63 757.439L993.704 753.119C994.643 755.128 994.581 757.275 993.431 759.652ZM978.951 750.824C977.766 753.273 979.018 756.011 982.439 757.666C985.824 759.304 988.748 758.586 989.933 756.137C991.117 753.689 989.829 750.933 986.481 749.313C983.132 747.693 980.135 748.376 978.951 750.824Z" fill="black"/>
<path d="M1017.76 662.6L1016.83 662.373L1020.36 647.837C1017.27 647.333 1015.06 648.647 1014.4 651.368C1013.93 653.272 1014.47 654.802 1016.06 655.888L1014.34 661.235C1010.32 658.816 1009 654.953 1010.09 650.445C1011.71 643.798 1017.3 641.123 1023.44 642.617C1029.31 644.044 1032.99 648.89 1031.5 655.031C1030.05 660.978 1024.79 664.311 1017.76 662.6ZM1027.45 654.252C1028.05 651.765 1026.8 649.648 1024.1 648.705L1021.94 657.606C1024.81 657.975 1026.84 656.74 1027.45 654.252Z" fill="black"/>
<path d="M1034.57 639.601L1033.43 645.166L1014.57 634.375L1015.72 628.731L1037.3 626.197L1036.11 632.037L1029.69 632.482L1020.45 632.759L1028.87 636.518L1034.57 639.601Z" fill="black"/>
<path d="M1041.18 620.005L1046.22 620.896L1045.24 626.45L1040.2 625.559L1041.18 620.005ZM1018.18 615.937L1038.5 619.531L1037.52 625.085L1017.2 621.491L1018.18 615.937Z" fill="black"/>
<path d="M1035.34 613.928L1025.34 612.368C1023.96 612.152 1023.32 612.619 1023.1 614.002L1022.81 615.86L1018.35 615.163L1018.92 611.527C1019.56 607.417 1021.43 606.049 1025.54 606.691L1036.21 608.356L1036.53 605.571L1040.64 606.212L1040.12 608.967L1046.49 609.96L1045.62 615.532L1039.22 614.533L1038.74 618.346L1034.63 617.704L1035.34 613.928Z" fill="black"/>
<path d="M1020.59 594.246C1021.29 588.65 1024.19 585.786 1028.62 585.816L1028.18 590.961C1026.11 591.025 1024.79 592.271 1024.46 594.93C1024.19 597.034 1024.71 598.711 1026.26 598.904C1027.37 599.043 1028.07 598.284 1028.66 596.463L1029.96 592.513C1031.25 588.603 1033.56 586.916 1036.7 587.308C1040.82 587.823 1043.03 591.445 1042.4 596.486C1041.78 601.447 1038.82 604.504 1034.75 604.519L1035.18 599.453C1037 599.399 1038.26 598.024 1038.52 595.92C1038.76 594.055 1038.03 592.755 1036.72 592.592C1035.65 592.458 1034.87 593.207 1034.37 594.636L1032.91 598.928C1031.56 602.912 1029.46 604.584 1026.28 604.188C1021.96 603.648 1019.9 599.763 1020.59 594.246Z" fill="black"/>
<path d="M1032.18 585.363L1031.22 585.281L1032.5 570.375C1029.37 570.348 1027.38 571.985 1027.14 574.774C1026.98 576.727 1027.74 578.157 1029.47 578.989L1028.6 584.534C1024.25 582.757 1022.35 579.141 1022.75 574.518C1023.33 567.703 1028.45 564.207 1034.75 564.747C1040.77 565.262 1045.14 569.491 1044.6 575.788C1044.08 581.886 1039.39 585.981 1032.18 585.363ZM1040.48 575.636C1040.7 573.085 1039.14 571.185 1036.33 570.663L1035.55 579.79C1038.44 579.717 1040.26 578.187 1040.48 575.636Z" fill="black"/>
<path d="M1045.33 558.407L1045.12 563.403L1024.26 562.546C1018.82 562.323 1016.02 558.564 1016.27 552.37C1016.51 546.455 1019.28 543.406 1023.61 543.183L1023.4 548.379C1021.47 548.62 1020.57 549.984 1020.47 552.422C1020.34 555.699 1021.81 556.801 1024.41 556.908L1027.25 557.024C1025.63 555.556 1024.86 553.643 1024.96 551.325C1025.17 546.17 1029.64 542.67 1036.03 542.933C1042.59 543.202 1046.31 547.118 1046.1 552.194C1045.99 554.831 1044.87 556.827 1042.78 558.102L1045.33 558.407ZM1029.71 552.761C1029.59 555.479 1031.83 557.493 1035.43 557.64C1039.03 557.788 1041.42 555.965 1041.54 553.247C1041.65 550.529 1039.45 548.517 1035.81 548.368C1032.13 548.217 1029.82 550.044 1029.71 552.761Z" fill="black"/>
<path d="M1048.8 535.832L1053.92 535.895L1053.85 541.535L1048.74 541.472L1048.8 535.832ZM1025.45 535.545L1046.08 535.799L1046.02 541.439L1025.38 541.185L1025.45 535.545Z" fill="black"/>
<path d="M1053.85 526.99L1053.95 532.629L1025.48 533.158L1025.38 528.159L1027.94 527.911C1025.75 526.552 1024.64 524.532 1024.59 521.973C1024.49 516.773 1028.86 513.012 1035.5 512.888C1042.26 512.763 1046.33 516.448 1046.42 521.127C1046.47 523.767 1045.62 525.743 1043.93 527.175L1053.85 526.99ZM1029.57 523.08C1029.62 525.8 1032.06 527.675 1035.77 527.606C1039.49 527.537 1041.82 525.573 1041.77 522.854C1041.72 520.134 1039.36 518.258 1035.6 518.328C1031.8 518.398 1029.52 520.361 1029.57 523.08Z" fill="black"/>
<path d="M1024.37 427.863L1023.43 428.08L1020.05 413.507C1017.07 414.446 1015.68 416.615 1016.32 419.343C1016.76 421.252 1017.92 422.378 1019.83 422.634L1020.71 428.179C1016.03 427.828 1013.1 424.974 1012.06 420.454C1010.51 413.791 1014.3 408.888 1020.46 407.459C1026.34 406.094 1031.81 408.768 1033.23 414.925C1034.62 420.887 1031.42 426.227 1024.37 427.863ZM1029.27 416.051C1028.69 413.557 1026.61 412.231 1023.78 412.6L1025.85 421.523C1028.59 420.561 1029.84 418.545 1029.27 416.051Z" fill="black"/>
<path d="M1028.62 396.368C1029.76 400.493 1027.68 403.64 1023.37 404.834L1010.03 408.521L1008.52 403.085L1020.63 399.739C1022.71 399.163 1023.76 397.837 1023.22 395.909C1022.58 393.596 1020.26 392.538 1017.29 393.358L1006.65 396.3L1005.15 390.863L1032.6 383.276L1034.1 388.712L1023.88 391.536C1026.36 392.261 1027.92 393.823 1028.62 396.368Z" fill="black"/>
<path d="M1019.7 381.507L1010.04 384.501C1008.7 384.915 1008.33 385.616 1008.74 386.953L1009.3 388.749L1004.98 390.086L1003.89 386.571C1002.66 382.597 1003.74 380.545 1007.72 379.315L1018.03 376.12L1017.09 373.48L1021.07 372.25L1021.82 374.948L1027.97 373.043L1029.64 378.43L1023.45 380.347L1024.7 383.98L1020.72 385.211L1019.7 381.507Z" fill="black"/>
</svg>
