<svg id="Livello_1" data-name="Livello 1" xmlns="http://www.w3.org/2000/svg" viewBox="0 0 1036.52 336.29"><polygon points="48.37 50.62 219.23 50.62 219.23 7.23 0 7.23 0 329.06 48.37 329.06 48.37 183.97 202.5 183.97 202.5 141.48 48.37 141.48 48.37 50.62"/><polygon points="660.24 7.23 611.87 7.23 611.87 329.06 817.99 329.06 817.99 285.67 660.24 285.67 660.24 7.23"/><path d="M549,379.16l-32,32c-26.88-24.95-63.24-39.24-106.41-39.24-94.92,0-157.29,67.8-157.29,168.15,0,41.37,10.75,77.08,29.86,104.92l-56,56h58.31l25.68-25.68c26.09,21,59.88,32.91,99.43,32.91,94.47,0,156.86-67.8,156.86-168.14,0-37.35-8.67-70.16-24.39-96.67l64.25-64.25ZM303.43,540.08c0-76.85,42.49-124.76,107.12-124.76,29.76,0,54.77,10.42,73.13,29.12l-165.2,165.2C308.81,590.58,303.43,567.17,303.43,540.08Zm213.8,0c0,76.84-42.49,124.75-106.68,124.75-26.26,0-48.78-8-66.37-22.58L506.49,479.94C513.42,497.14,517.23,517.3,517.23,540.08Z" transform="translate(-21.45 -371.93)"/><polygon points="773.9 7.23 773.9 50.62 880.57 50.62 880.57 329.06 929.85 329.06 929.85 50.62 1036.52 50.62 1036.52 7.23 773.9 7.23"/></svg>
