<svg width="1056" height="1056" viewBox="0 0 1056 1056" fill="none" xmlns="http://www.w3.org/2000/svg">
<path d="M241.798 148.305L246.319 144.866L253.402 165.411L248.817 168.898L230.91 156.586L235.654 152.978L240.776 156.872L247.912 162.752L244.055 154.378L241.798 148.305Z" fill="black"/>
<path d="M236.454 179.666C231.694 183.639 225.348 182.839 221.35 178.049C217.351 173.258 217.7 166.871 222.46 162.898C227.22 158.926 233.566 159.725 237.565 164.516C241.563 169.307 241.214 175.693 236.454 179.666ZM233.635 176.288C236.061 174.263 235.925 171.042 233.388 168.001C230.851 164.961 227.705 164.252 225.279 166.276C222.853 168.301 222.989 171.523 225.526 174.563C228.064 177.603 231.209 178.313 233.635 176.288Z" fill="black"/>
<path d="M207.615 175.726C210.77 172.834 214.517 173.252 217.544 176.555L226.895 186.758L222.737 190.569L214.251 181.309C212.792 179.717 211.135 179.39 209.661 180.741C207.892 182.363 208.007 184.916 210.088 187.187L217.548 195.325L213.39 199.136L194.147 178.141L198.304 174.33L205.467 182.144C204.983 179.603 205.668 177.51 207.615 175.726Z" fill="black"/>
<path d="M187.811 192.256L180.26 191.487L183.798 187.954L187.814 188.579L187.194 184.562L190.732 181.029L191.491 188.582L187.811 192.256ZM206.383 207.062C202.393 211.047 198.348 211.525 194.871 208.779L198.38 204.992C200.048 206.209 201.859 206.04 203.755 204.147C205.255 202.649 205.879 201.009 204.776 199.905C203.985 199.112 202.967 199.281 201.382 200.355L197.93 202.672C194.506 204.961 191.649 204.874 189.416 202.638C186.477 199.694 186.96 195.48 190.555 191.89C194.093 188.357 198.308 187.766 201.53 190.258L198.077 193.989C196.607 192.913 194.768 193.223 193.268 194.721C191.938 196.049 191.711 197.52 192.643 198.454C193.406 199.218 194.481 199.106 195.755 198.286L199.547 195.8C203.055 193.483 205.742 193.457 208.004 195.721C211.084 198.806 210.318 203.133 206.383 207.062Z" fill="black"/>
<path d="M191.744 206.981L192.451 207.63L182.342 218.657C184.804 220.589 187.376 220.505 189.269 218.441C190.593 216.997 190.864 215.399 189.996 213.682L194.075 209.824C196.432 213.884 195.729 217.906 192.593 221.326C187.971 226.368 181.784 226.014 177.125 221.743C172.673 217.661 171.789 211.641 176.06 206.983C180.195 202.471 186.407 202.089 191.744 206.981ZM179.232 209.619C177.502 211.506 177.58 213.966 179.484 216.092L185.674 209.34C183.335 207.629 180.962 207.732 179.232 209.619Z" fill="black"/>
<path d="M180.226 234.009L158.643 215.427L162.323 211.153L183.906 229.735L180.226 234.009Z" fill="black"/>
<path d="M159.051 227.264L162.591 222.874L178.658 235.831L175.192 240.128L172.963 238.432C173.852 240.897 173.463 243.101 171.805 245.156C169.119 248.487 165.351 248.635 161.864 245.822L151.091 237.134L154.631 232.744L164.408 240.629C166.089 241.985 167.776 242.06 169.031 240.503C170.538 238.635 170.042 236.128 167.644 234.194L159.051 227.264Z" fill="black"/>
<path d="M162.751 255.894L152.287 254.991L152.759 257.923L158.266 261.98L154.92 266.521L131.993 249.625L135.339 245.085L147.929 254.363L145.803 244.101L150.003 238.401L151.77 249.691L166.713 250.517L162.751 255.894Z" fill="black"/>
<path d="M105.906 356.748C103.545 362.481 97.5574 364.73 91.7875 362.354C86.0175 359.979 83.3501 354.165 85.7109 348.432C88.0716 342.699 94.0592 340.449 99.8291 342.825C105.599 345.201 108.266 351.015 105.906 356.748ZM101.837 355.072C103.04 352.151 101.42 349.363 97.7578 347.856C94.0961 346.348 90.9826 347.185 89.7794 350.107C88.5762 353.029 90.1971 355.816 93.8588 357.324C97.5205 358.832 100.634 357.994 101.837 355.072Z" fill="black"/>
<path d="M84.406 363.83L93.9022 367.328C95.2159 367.812 95.9349 367.48 96.4189 366.166L97.0687 364.402L101.31 365.965L100.038 369.418C98.6 373.321 96.4942 374.293 92.5906 372.855L82.4564 369.122L81.6011 371.791L77.6976 370.353L78.7405 367.753L72.6975 365.527L74.6472 360.235L80.7277 362.475L81.9425 358.83L85.846 360.268L84.406 363.83Z" fill="black"/>
<path d="M80.4294 374.788L90.0047 378.064C91.3293 378.517 92.0405 378.168 92.4936 376.844L93.1021 375.065L97.3788 376.528L96.1877 380.01C94.8413 383.946 92.7587 384.967 88.8227 383.62L78.604 380.125L77.8113 382.813L73.8752 381.466L74.8571 378.843L68.7638 376.759L70.5892 371.422L76.7204 373.52L77.8497 369.847L81.7858 371.194L80.4294 374.788Z" fill="black"/>
<path d="M84.4189 384.624L85.3374 384.903L80.9872 399.217C84.0422 399.894 86.3261 398.707 87.1403 396.028C87.7102 394.153 87.2637 392.596 85.7393 391.422L87.7504 386.18C91.6297 388.822 92.7343 392.753 91.3851 397.193C89.3961 403.737 83.6636 406.092 77.6167 404.254C71.8377 402.498 68.4383 397.451 70.2761 391.405C72.0557 385.549 77.4917 382.519 84.4189 384.624ZM74.2762 392.411C73.5318 394.861 74.6657 397.045 77.3015 398.138L79.9651 389.374C77.1165 388.843 75.0206 389.962 74.2762 392.411Z" fill="black"/>
<path d="M64.1307 401.995C63.7221 403.542 64.2628 404.471 65.8098 404.879L66.854 405.155L67.739 401.335L71.7611 402.397L70.644 406.156L86.6936 410.395L85.2534 415.848L69.2037 411.609L68.5843 414.424L64.5622 413.362L65.4137 410.608L64.0988 410.261C59.9607 409.168 58.3101 406.332 59.403 402.194L60.1589 399.332L64.5291 400.487L64.1307 401.995Z" fill="black"/>
<path d="M61.1667 413.203C60.7941 414.759 61.3562 415.675 62.9122 416.048L63.9625 416.3L64.7587 412.459L68.8043 413.428L67.7748 417.212L83.9184 421.078L82.6051 426.563L66.4614 422.697L65.9075 425.526L61.8618 424.557L62.6492 421.784L61.3266 421.468C57.1642 420.471 55.4483 417.675 56.4449 413.512L57.1342 410.634L61.5299 411.686L61.1667 413.203Z" fill="black"/>
<path d="M72.6199 426.893L73.5606 427.084L70.5754 441.743C73.6806 442.131 75.8427 440.734 76.4015 437.99C76.7926 436.07 76.2017 434.562 74.5736 433.536L76.083 428.129C80.1935 430.394 81.6628 434.204 80.7369 438.751C79.372 445.453 73.8863 448.337 67.6934 447.075C61.7749 445.87 57.9161 441.166 59.1772 434.973C60.3985 428.976 65.5255 425.448 72.6199 426.893ZM63.2543 435.599C62.7434 438.107 64.0777 440.175 66.8047 441.016L68.6325 432.04C65.7466 431.779 63.7651 433.09 63.2543 435.599Z" fill="black"/>
</svg>
