<svg width="1056" height="1056" viewBox="0 0 1056 1056" fill="none" xmlns="http://www.w3.org/2000/svg">
<path d="M736.712 904.885L736.224 904.058L749.101 896.445C747.307 893.881 744.821 893.213 742.411 894.638C740.724 895.636 740.001 897.085 740.332 898.981L735.308 901.487C734.233 896.918 736.074 893.273 740.068 890.912C745.956 887.431 751.773 889.567 754.99 895.008C758.064 900.207 757.161 906.224 751.72 909.441C746.452 912.555 740.397 911.117 736.712 904.885ZM749.451 905.996C751.655 904.693 752.295 902.317 751.09 899.73L743.205 904.392C744.947 906.708 747.248 907.299 749.451 905.996Z" fill="black"/>
<path d="M771.334 905.937L766.645 909.071L750.822 885.391L754.979 882.613L756.568 884.63C756.532 882.056 757.628 880.025 759.756 878.603C764.08 875.714 769.606 877.361 773.295 882.882C777.051 888.502 776.147 893.917 772.256 896.517C770.061 897.984 767.942 898.341 765.823 897.689L771.334 905.937ZM761.514 883.393C759.253 884.905 758.99 887.967 761.056 891.06C763.123 894.153 766.031 895.048 768.292 893.537C770.554 892.026 770.861 889.03 768.772 885.904C766.661 882.745 763.776 881.882 761.514 883.393Z" fill="black"/>
<path d="M786.85 889.15L789.846 893.301L785.272 896.602L782.276 892.45L786.85 889.15ZM773.18 870.207L785.258 886.944L780.685 890.244L768.607 873.507L773.18 870.207Z" fill="black"/>
<path d="M781.122 863.215C785.586 859.769 789.659 859.809 792.759 862.975L788.797 866.286C787.297 864.866 785.48 864.803 783.358 866.441C781.68 867.736 780.853 869.284 781.806 870.519C782.491 871.405 783.522 871.367 785.231 870.503L788.949 868.644C792.636 866.809 795.459 867.258 797.389 869.759C799.931 873.053 798.916 877.171 794.894 880.275C790.936 883.33 786.68 883.38 783.8 880.5L787.7 877.238C789.021 878.492 790.884 878.418 792.563 877.123C794.051 875.974 794.463 874.544 793.657 873.499C792.997 872.644 791.916 872.619 790.549 873.27L786.472 875.255C782.698 877.107 780.029 876.792 778.074 874.258C775.41 870.807 776.72 866.612 781.122 863.215Z" fill="black"/>
<path d="M802.645 868.42L796.181 860.633C795.287 859.555 794.499 859.482 793.421 860.376L791.975 861.577L789.088 858.099L791.92 855.749C795.121 853.092 797.43 853.306 800.087 856.507L806.985 864.818L809.062 862.937L811.719 866.138L809.514 867.865L813.627 872.821L809.287 876.423L805.148 871.436L802.27 873.981L799.613 870.78L802.645 868.42Z" fill="black"/>
<path d="M816.986 861.462L812.789 865.23L799 849.872L803.107 846.184L805.038 848.214C804.553 845.638 805.29 843.525 807.254 841.762C810.439 838.902 814.182 839.359 817.175 842.692L826.421 852.991L822.224 856.758L813.833 847.413C812.39 845.805 810.737 845.461 809.249 846.798C807.463 848.401 807.553 850.955 809.61 853.247L816.986 861.462Z" fill="black"/>
<path d="M820.604 828.932C825.005 824.565 831.397 824.816 835.792 829.245C840.187 833.675 840.389 840.068 835.988 844.435C831.587 848.802 825.196 848.551 820.8 844.122C816.405 839.692 816.203 833.299 820.604 828.932ZM823.704 832.055C821.461 834.281 821.873 837.479 824.662 840.29C827.451 843.101 830.646 843.537 832.889 841.312C835.132 839.086 834.72 835.888 831.93 833.077C829.141 830.266 825.947 829.83 823.704 832.055Z" fill="black"/>
<path d="M888.561 761.224L887.737 760.731L895.422 747.895C892.622 746.498 890.119 747.098 888.68 749.5C887.674 751.182 887.73 752.8 888.925 754.309L885.705 758.908C882.581 755.405 882.46 751.324 884.844 747.343C888.358 741.474 894.49 740.577 899.912 743.823C905.094 746.926 907.171 752.645 903.924 758.068C900.78 763.318 894.773 764.943 888.561 761.224ZM900.287 756.123C901.602 753.926 901.03 751.533 898.737 749.834L894.032 757.693C896.667 758.898 898.972 758.319 900.287 756.123Z" fill="black"/>
<path d="M913.519 741.345C911.504 745.121 907.831 745.972 903.878 743.862L891.668 737.347L894.323 732.371L905.404 738.284C907.31 739.301 908.981 739.059 909.922 737.294C911.052 735.177 910.095 732.807 907.378 731.357L897.638 726.16L900.293 721.184L925.419 734.592L922.764 739.568L913.412 734.578C914.713 736.813 914.762 739.016 913.519 741.345Z" fill="black"/>
<path d="M917.328 724.314L908.225 719.892C906.966 719.28 906.218 719.539 905.606 720.798L904.784 722.489L900.719 720.514L902.327 717.204C904.145 713.462 906.337 712.704 910.079 714.522L919.793 719.241L920.908 716.67L924.65 718.488L923.355 720.972L929.147 723.786L926.682 728.859L920.854 726.027L919.284 729.534L915.542 727.716L917.328 724.314Z" fill="black"/>
<path d="M956.204 628.008C955.347 632.201 951.904 633.865 947.671 633L934.151 630.235L935.281 624.71L947.704 627.25C949.507 627.618 951.195 627.147 951.588 625.227C952.028 623.071 950.405 621.229 947.387 620.612L936.571 618.4L937.701 612.874L950.124 615.414C951.926 615.783 953.615 615.312 954.008 613.391C954.448 611.236 952.824 609.393 949.807 608.776L938.991 606.565L940.12 601.039L960.342 605.174L959.236 610.582L956.634 610.131C958.454 611.81 959.105 613.821 958.608 616.251C958.015 619.151 956.235 620.869 953.778 621.306C955.982 623.104 956.765 625.264 956.204 628.008Z" fill="black"/>
<path d="M941.207 589.293C942.051 583.15 947.281 579.468 953.463 580.318C959.645 581.168 963.687 586.124 962.843 592.267C961.999 598.409 956.769 602.091 950.587 601.241C944.405 600.391 940.362 595.435 941.207 589.293ZM945.566 589.892C945.135 593.022 947.405 595.313 951.328 595.852C955.251 596.391 958.054 594.798 958.484 591.667C958.914 588.537 956.645 586.246 952.722 585.707C948.799 585.168 945.996 586.761 945.566 589.892Z" fill="black"/>
<path d="M964.78 579.443C964.723 580.04 964.587 580.63 964.331 581.208L959.194 580.72C959.272 580.325 959.346 579.971 959.384 579.572C959.709 576.148 957.917 574.29 953.935 573.911L943.94 572.96L944.474 567.346L965.021 569.3L964.499 574.795L961.759 574.454C963.905 575.542 964.985 577.292 964.78 579.443Z" fill="black"/>
<path d="M968.577 567.013C968.685 565.416 967.978 564.607 966.382 564.499L965.304 564.426L965.16 568.346L961.009 568.065L961.393 564.162L944.831 563.044L945.21 557.417L961.773 558.535L961.847 555.654L965.997 555.934L965.684 558.799L967.041 558.891C971.311 559.179 973.469 561.65 973.181 565.92L972.982 568.874L968.472 568.569L968.577 567.013Z" fill="black"/>
<path d="M939.478 462.662C938.531 457.102 940.479 453.525 944.729 452.274L945.792 457.327C943.835 457.985 942.926 459.56 943.376 462.202C943.732 464.292 944.71 465.748 946.248 465.486C947.352 465.298 947.803 464.369 947.842 462.456L947.946 458.299C948.057 454.182 949.778 451.901 952.893 451.371C956.994 450.672 960.154 453.502 961.007 458.51C961.846 463.439 959.893 467.221 955.997 468.411L954.948 463.437C956.675 462.859 957.485 461.179 957.129 459.089C956.813 457.236 955.744 456.201 954.443 456.422C953.378 456.603 952.849 457.546 952.782 459.058L952.62 463.59C952.484 467.792 950.952 470.001 947.798 470.538C943.5 471.269 940.411 468.143 939.478 462.662Z" fill="black"/>
<path d="M947.999 450.725L947.062 450.931L943.85 436.32C940.854 437.224 939.444 439.378 940.045 442.112C940.466 444.027 941.617 445.166 943.521 445.444L944.333 450.999C939.656 450.593 936.769 447.706 935.773 443.174C934.305 436.493 938.151 431.634 944.324 430.278C950.223 428.981 955.657 431.718 957.014 437.891C958.328 443.868 955.071 449.171 947.999 450.725ZM953.033 438.971C952.484 436.47 950.426 435.121 947.592 435.457L949.558 444.403C952.303 443.472 953.583 441.471 953.033 438.971Z" fill="black"/>
<path d="M952.534 419.152C953.655 423.282 951.564 426.42 947.24 427.593L933.883 431.219L932.406 425.776L944.527 422.485C946.612 421.92 947.662 420.598 947.139 418.668C946.51 416.352 944.189 415.283 941.216 416.089L930.562 418.981L929.084 413.538L956.57 406.078L958.047 411.521L947.817 414.298C950.297 415.034 951.842 416.604 952.534 419.152Z" fill="black"/>
<path d="M925.264 403.559C923.382 397.736 926.287 392.804 932.605 390.762C938.923 388.72 944.164 391.02 946.046 396.843C947.67 401.868 946.025 406.014 941.64 408.314L939.943 403.062C941.89 401.802 942.511 400.214 941.884 398.273C940.998 395.532 938.274 394.647 934.278 395.938C930.281 397.23 928.59 399.542 929.476 402.282C930.091 404.185 931.6 405.085 933.929 405.005L935.626 410.258C930.686 410.971 926.863 408.507 925.264 403.559Z" fill="black"/>
<path d="M937.295 384.888L927.783 388.344C926.468 388.822 926.133 389.54 926.611 390.856L927.253 392.623L923.004 394.166L921.748 390.707C920.327 386.797 921.308 384.696 925.218 383.275L935.369 379.587L934.3 376.997L938.21 375.576L939.091 378.235L945.144 376.036L947.07 381.337L940.98 383.55L942.404 387.118L938.494 388.539L937.295 384.888Z" fill="black"/>
<path d="M918.914 382.816L916.756 377.519C917.362 377.099 917.895 376.71 918.516 376.327C916.432 375.664 914.661 373.967 913.635 371.448C911.99 367.41 913.267 363.866 916.749 362.448C919.787 361.21 922.55 362.374 924.897 365.909L928.947 372.034L930.355 371.46C931.763 370.887 931.962 369.467 931.117 367.393C930.241 365.244 929.093 364.546 927.209 365.011L925.336 360.202C929.673 358.867 932.708 360.697 934.806 365.846C937.039 371.329 935.763 375.088 931.059 377.005L922.613 380.446C920.835 381.17 919.651 381.868 918.914 382.816ZM918.091 371.36C919.102 373.842 921.39 375.113 924.206 373.966L925.613 373.392L922.584 368.925C921.602 367.468 920.425 366.911 919.165 367.424C917.795 367.982 917.306 369.434 918.091 371.36Z" fill="black"/>
<path d="M928.141 351.418L930.686 356.764L909.419 360.111L907.115 355.271L916.208 347.664L918.457 346.061L915.778 346.761L904.14 349.023L901.836 344.184L917.841 329.785L920.386 335.13L913.095 341.127L908.813 344.229L913.921 342.86L923.188 341.017L925.338 345.532L918.137 351.53L913.783 354.666L918.89 353.298L928.141 351.418Z" fill="black"/>
<path d="M864.699 255.92L856.905 262.375C855.827 263.268 855.753 264.057 856.646 265.135L857.845 266.583L854.364 269.466L852.017 266.632C849.363 263.428 849.58 261.119 852.784 258.465L861.102 251.577L859.223 249.497L862.427 246.843L864.152 249.051L869.112 244.943L872.709 249.287L867.718 253.42L870.26 256.301L867.056 258.954L864.699 255.92Z" fill="black"/>
<path d="M846.692 260.154L842.879 255.891C843.309 255.292 843.679 254.746 844.136 254.176C841.95 254.253 839.712 253.25 837.898 251.223C834.992 247.973 835.003 244.206 837.806 241.699C840.25 239.513 843.244 239.679 846.643 242.22L852.517 246.626L853.65 245.613C854.783 244.6 854.493 243.196 852.999 241.526C851.453 239.797 850.136 239.525 848.519 240.596L845.138 236.697C848.774 233.982 852.247 234.685 855.954 238.829C859.901 243.242 859.963 247.211 856.176 250.598L849.379 256.678C847.948 257.958 847.068 259.014 846.692 260.154ZM842.066 249.642C843.852 251.639 846.435 252.067 848.701 250.04L849.834 249.027L845.479 245.838C844.064 244.796 842.768 244.667 841.754 245.574C840.651 246.56 840.679 248.092 842.066 249.642Z" fill="black"/>
<path d="M843.233 225.073C846.237 228.121 845.954 231.881 842.763 235.025L832.905 244.739L828.946 240.722L837.893 231.906C839.431 230.39 839.698 228.724 838.295 227.299C836.61 225.589 834.063 225.797 831.869 227.959L824.005 235.707L820.047 231.69L840.333 211.701L844.292 215.718L836.741 223.158C839.263 222.582 841.38 223.192 843.233 225.073Z" fill="black"/>
<path d="M828.116 216.365L821.179 223.733C820.219 224.752 820.243 225.544 821.262 226.503L822.631 227.792L819.532 231.083L816.853 228.56C813.824 225.709 813.754 223.39 816.606 220.362L824.01 212.498L821.889 210.666L824.74 207.638L826.724 209.615L831.139 204.927L835.245 208.793L830.803 213.511L833.681 216.056L830.829 219.084L828.116 216.365Z" fill="black"/>
<path d="M749.038 164.549L748.563 165.384L735.56 157.987C734.226 160.818 734.88 163.307 737.314 164.691C739.018 165.66 740.635 165.568 742.116 164.34L746.786 167.456C743.354 170.658 739.276 170.869 735.243 168.575C729.298 165.193 728.264 159.083 731.389 153.589C734.375 148.339 740.046 146.135 745.54 149.26C750.859 152.286 752.618 158.256 749.038 164.549ZM743.677 152.94C741.451 151.674 739.071 152.299 737.424 154.629L745.386 159.158C746.531 156.497 745.902 154.206 743.677 152.94Z" fill="black"/>
<path d="M728.451 140.066C732.297 141.944 733.048 145.694 731.152 149.576L725.098 161.976L720.029 159.502L725.593 148.107C726.4 146.454 726.366 144.701 724.605 143.841C722.628 142.876 720.438 143.988 719.086 146.755L714.242 156.676L709.174 154.201L714.738 142.807C715.545 141.154 715.511 139.401 713.75 138.541C711.773 137.576 709.583 138.687 708.231 141.455L703.387 151.376L698.319 148.901L707.375 130.354L712.336 132.776L711.249 135.183C713.33 133.84 715.439 133.713 717.668 134.801C720.328 136.1 721.547 138.253 721.355 140.741C723.647 139.056 725.935 138.837 728.451 140.066Z" fill="black"/>
<path d="M622.149 98.4827C620.582 98.1582 619.683 98.7483 619.359 100.315L619.14 101.373L623.003 102.05L622.159 106.124L618.345 105.211L614.979 121.466L609.456 120.322L612.822 104.067L609.978 103.601L610.821 99.5273L613.617 100.229L613.893 98.8971C614.761 94.706 617.503 92.9047 621.694 93.7727L624.593 94.373L623.676 98.7991L622.149 98.4827Z" fill="black"/>
<path d="M596.675 118.743C590.559 117.723 587.028 112.389 588.055 106.234C589.082 100.079 594.152 96.1803 600.268 97.2004C606.383 98.2204 609.914 103.554 608.887 109.709C607.861 115.864 602.79 119.763 596.675 118.743ZM597.398 114.403C600.515 114.923 602.87 112.72 603.521 108.814C604.173 104.908 602.661 102.06 599.544 101.54C596.427 101.021 594.072 103.223 593.421 107.129C592.769 111.035 594.281 113.883 597.398 114.403Z" fill="black"/>
<path d="M490.33 97.1127L491.268 107.189C491.398 108.583 492.007 109.089 493.401 108.959L495.273 108.785L495.692 113.285L492.028 113.626C487.886 114.012 486.101 112.531 485.715 108.389L484.714 97.6357L481.937 98.0148L481.551 93.8727L484.347 93.6927L483.75 87.2805L489.365 86.7575L489.966 93.2096L493.778 92.734L494.164 96.8761L490.33 97.1127Z" fill="black"/>
<path d="M478.831 93.4574C479.426 93.3832 480.031 93.3884 480.652 93.5126L481.29 98.633C480.888 98.6428 480.526 98.6476 480.129 98.6971C476.715 99.1225 475.29 101.275 475.785 105.244L477.027 115.207L471.43 115.905L468.878 95.4234L474.355 94.7407L474.617 97.4894C475.213 95.1578 476.687 93.7245 478.831 93.4574Z" fill="black"/>
<path d="M469.854 116.069L464.209 116.999C463.935 116.314 463.673 115.709 463.437 115.018C462.329 116.903 460.281 118.253 457.597 118.695C453.295 119.404 450.123 117.372 449.512 113.662C448.979 110.426 450.727 107.989 454.695 106.485L461.565 103.894L461.318 102.394C461.072 100.894 459.731 100.385 457.521 100.749C455.232 101.126 454.296 102.091 454.332 104.031L449.227 104.79C448.888 100.265 451.345 97.7123 456.832 96.809C462.673 95.8472 466.055 97.9253 466.881 102.938L468.362 111.937C468.674 113.831 469.093 115.141 469.854 116.069ZM458.5 114.331C461.145 113.895 462.891 111.946 462.397 108.946L462.15 107.446L457.122 109.409C455.484 110.044 454.679 111.068 454.9 112.41C455.141 113.87 456.448 114.669 458.5 114.331Z" fill="black"/>
<path d="M437.88 100.278C442.455 99.2907 446.974 102.408 448.4 109.016C449.8 115.506 447.139 120.622 442.056 121.719C439.828 122.2 437.765 121.745 436.073 120.35L438.199 130.204L432.686 131.393L426.612 103.241L431.499 102.187L432.26 104.764C433.181 102.397 435.026 100.894 437.88 100.278ZM439.837 117.124C442.496 116.55 443.884 113.877 443.082 110.163C442.289 106.488 439.923 104.625 437.264 105.198C434.605 105.772 433.226 108.484 434.011 112.12C434.795 115.757 437.179 117.698 439.837 117.124Z" fill="black"/>
<path d="M346.605 142.347L347.031 143.207L333.63 149.855C335.232 152.544 337.662 153.392 340.17 152.148C341.926 151.277 342.753 149.884 342.562 147.969L347.757 145.839C348.493 150.474 346.39 153.974 342.233 156.036C336.106 159.076 330.461 156.518 327.652 150.856C324.968 145.446 326.31 139.511 331.971 136.702C337.454 133.982 343.387 135.861 346.605 142.347ZM333.982 140.304C331.688 141.442 330.876 143.765 331.887 146.433L340.093 142.362C338.527 139.925 336.275 139.166 333.982 140.304Z" fill="black"/>
<path d="M314.842 145.613C318.575 143.519 322.127 144.782 324.319 148.69L331.089 160.761L326.17 163.52L320.026 152.565C318.969 150.681 317.432 149.984 315.687 150.963C313.594 152.137 313.123 154.649 314.629 157.335L320.03 166.964L315.111 169.723L301.179 144.884L306.098 142.124L311.283 151.369C311.393 148.785 312.539 146.904 314.842 145.613Z" fill="black"/>
<path d="M302.469 157.887L307.738 166.527C308.467 167.722 309.237 167.909 310.432 167.18L312.037 166.201L314.391 170.06L311.249 171.976C307.697 174.142 305.443 173.595 303.277 170.044L297.654 160.823L295.326 162.383L293.16 158.832L295.592 157.442L292.239 151.944L297.054 149.007L300.428 154.54L303.644 152.438L305.81 155.99L302.469 157.887Z" fill="black"/>
</svg>
