<svg width="1056" height="1056" viewBox="0 0 1056 1056" fill="none" xmlns="http://www.w3.org/2000/svg">
<path d="M307.072 197.408C310.633 195.035 314.272 196.022 316.757 199.75L324.433 211.266L319.74 214.394L312.774 203.943C311.576 202.146 309.989 201.569 308.325 202.678C306.328 204.009 306.051 206.55 307.759 209.113L313.882 218.299L309.189 221.427L297.741 204.253L302.334 201.191L303.954 203.477C303.843 200.858 304.875 198.873 307.072 197.408Z" fill="black"/>
<path d="M302.355 214.385L302.931 215.152L290.973 224.141C293.039 226.491 295.583 226.88 297.822 225.198C299.388 224.02 299.947 222.499 299.409 220.652L304.126 217.607C305.698 222.03 304.27 225.855 300.561 228.643C295.093 232.752 289.076 231.271 285.279 226.218C281.65 221.39 281.884 215.31 286.936 211.513C291.828 207.836 298.005 208.597 302.355 214.385ZM289.571 214.686C287.524 216.224 287.151 218.657 288.633 221.095L295.956 215.592C293.97 213.482 291.617 213.148 289.571 214.686Z" fill="black"/>
<path d="M285.189 227.226L285.806 227.961L274.35 237.581C276.54 239.816 279.102 240.068 281.246 238.267C282.747 237.007 283.223 235.458 282.586 233.642L287.132 230.347C288.94 234.679 287.721 238.575 284.168 241.559C278.929 245.958 272.841 244.803 268.777 239.963C264.892 235.338 264.798 229.254 269.638 225.189C274.324 221.254 280.533 221.681 285.189 227.226ZM272.44 228.216C270.48 229.862 270.238 232.311 271.85 234.666L278.865 228.776C276.768 226.776 274.401 226.57 272.44 228.216Z" fill="black"/>
<path d="M257.501 236.424L261.784 232.337L271.606 251.494L267.728 255.194L257.661 248.933L255.436 247.296L256.938 249.623L262.722 259.972L258.844 263.672L240.167 252.965L244.45 248.878L252.423 253.931L256.708 257.03L253.812 252.605L249.167 244.377L252.784 240.925L260.731 245.892L265.071 249.049L262.176 244.625L257.501 236.424Z" fill="black"/>
<path d="M240.387 258.528L247.741 265.481C248.758 266.442 249.55 266.42 250.512 265.403L251.803 264.036L255.088 267.142L252.56 269.816C249.702 272.839 247.384 272.904 244.361 270.046L236.512 262.627L234.676 264.744L231.653 261.886L233.635 259.907L228.955 255.483L232.829 251.384L237.538 255.836L240.089 252.963L243.112 255.82L240.387 258.528Z" fill="black"/>
<path d="M239.887 269.178L240.612 269.808L230.795 281.097C233.307 282.963 235.877 282.812 237.714 280.699C239 279.22 239.229 277.616 238.316 275.922L242.293 271.959C244.755 275.955 244.158 279.994 241.113 283.496C236.625 288.657 230.431 288.466 225.661 284.319C221.104 280.355 220.062 274.361 224.208 269.591C228.224 264.973 234.424 264.427 239.887 269.178ZM227.449 272.144C225.769 274.076 225.912 276.533 227.871 278.607L233.882 271.695C231.499 270.047 229.129 270.212 227.449 272.144Z" fill="black"/>
<path d="M211.474 284.896C214.345 281.2 219.811 280.685 225.149 284.832C230.393 288.906 231.641 294.536 228.451 298.643C226.88 300.664 224.775 301.613 222.211 301.393L224.11 303.121L221.042 307.07L198.552 289.596L202.012 285.143L209.846 291.229C209.347 289.068 209.854 286.98 211.474 284.896ZM223.798 296.547C225.466 294.399 224.812 291.46 221.812 289.128C218.842 286.821 215.832 286.914 214.164 289.062C212.495 291.21 213.18 294.174 216.118 296.456C219.056 298.739 222.129 298.695 223.798 296.547Z" fill="black"/>
<path d="M165.587 387.807L161.084 385.927L165.398 375.591L169.901 377.471L165.587 387.807Z" fill="black"/>
<path d="M127.892 485.342C128.376 481.089 131.478 478.946 135.929 479.452L149.68 481.015L149.043 486.619L136.564 485.2C134.418 484.956 132.953 485.796 132.727 487.784C132.456 490.168 134.219 492.019 137.279 492.367L148.248 493.614L147.611 499.218L127.103 496.887L127.727 491.402L130.518 491.639C128.446 490.034 127.594 487.965 127.892 485.342Z" fill="black"/>
<path d="M123.62 505.448L118.515 505.061L118.942 499.437L124.047 499.825L123.62 505.448ZM146.913 507.216L126.333 505.654L126.759 500.03L147.34 501.592L146.913 507.216Z" fill="black"/>
<path d="M140.679 593.539L141.624 593.367L144.299 608.086C147.326 607.292 148.815 605.191 148.314 602.437C147.963 600.508 146.854 599.328 144.961 598.98L144.353 593.399C149.012 593.975 151.791 596.966 152.621 601.532C153.845 608.261 149.823 612.977 143.605 614.107C137.663 615.187 132.332 612.253 131.201 606.035C130.107 600.014 133.556 594.834 140.679 593.539ZM135.219 605.102C135.677 607.62 137.684 609.044 140.528 608.812L138.89 599.8C136.114 600.63 134.761 602.583 135.219 605.102Z" fill="black"/>
<path d="M135.061 625.034C134.068 620.871 136.255 617.8 140.612 616.76L154.074 613.548L155.383 619.033L143.166 621.949C141.065 622.45 139.975 623.739 140.439 625.684C140.996 628.018 143.283 629.159 146.279 628.444L157.017 625.881L158.326 631.367L130.624 637.978L129.315 632.492L139.626 630.031C137.17 629.219 135.674 627.602 135.061 625.034Z" fill="black"/>
<path d="M143.513 640.357L153.253 637.609C154.601 637.229 154.988 636.538 154.607 635.19L154.097 633.381L158.447 632.154L159.446 635.695C160.576 639.699 159.443 641.723 155.439 642.852L145.045 645.785L145.921 648.447L141.917 649.576L141.234 646.86L135.035 648.608L133.504 643.18L139.741 641.421L138.583 637.758L142.586 636.628L143.513 640.357Z" fill="black"/>
</svg>
