<svg width="1056" height="1056" viewBox="0 0 1056 1056" fill="none" xmlns="http://www.w3.org/2000/svg">
<path d="M780.273 412.348L779.42 412.787L772.579 399.482C769.914 401.122 769.101 403.565 770.381 406.055C771.277 407.798 772.682 408.605 774.593 408.387L776.798 413.55C772.174 414.353 768.644 412.3 766.523 408.173C763.395 402.09 765.872 396.409 771.492 393.519C776.864 390.758 782.817 392.014 785.707 397.635C788.506 403.078 786.712 409.037 780.273 412.348ZM782.135 399.697C780.964 397.42 778.629 396.641 775.976 397.691L780.164 405.837C782.579 404.236 783.305 401.973 782.135 399.697Z" fill="black"/>
<path d="M775.775 380.032C778.111 383.619 776.83 387.222 773.21 389.579L761.645 397.11L758.568 392.384L769.193 385.464C770.735 384.46 771.606 382.938 770.536 381.296C769.336 379.452 766.886 379.282 764.305 380.962L755.053 386.987L751.976 382.261L762.601 375.341C764.143 374.337 765.014 372.816 763.944 371.173C762.744 369.33 760.294 369.159 757.713 370.84L748.461 376.864L745.384 372.138L762.68 360.875L765.692 365.5L763.523 367.008C765.998 366.924 767.874 367.898 769.227 369.976C770.842 372.457 770.782 374.93 769.34 376.967C772.172 376.698 774.248 377.686 775.775 380.032Z" fill="black"/>
<path d="M676.609 307.036C671.435 303.619 670.376 297.311 673.814 292.104C677.253 286.897 683.47 285.394 688.644 288.811C693.817 292.227 694.877 298.535 691.439 303.742C688 308.949 681.783 310.452 676.609 307.036ZM679.034 303.364C681.671 305.105 684.717 304.049 686.899 300.744C689.081 297.44 688.856 294.224 686.219 292.482C683.582 290.741 680.536 291.797 678.354 295.102C676.172 298.406 676.397 301.623 679.034 303.364Z" fill="black"/>
<path d="M673.44 284.431L668.38 293.195C667.679 294.407 667.884 295.172 669.097 295.872L670.725 296.813L668.464 300.727L665.278 298.887C661.675 296.806 661.075 294.566 663.155 290.963L668.556 281.611L666.071 280.315L668.152 276.712L670.537 278.182L673.757 272.605L678.641 275.425L675.401 281.037L678.786 282.853L676.706 286.456L673.44 284.431Z" fill="black"/>
<path d="M577.341 244.635L582.281 245.41L579.044 266.037C578.201 271.412 574.146 273.772 568.021 272.811C562.173 271.893 559.46 268.795 559.735 264.465L564.872 265.271C564.89 267.218 566.143 268.265 568.554 268.643C571.794 269.151 573.057 267.811 573.46 265.242L573.9 262.436C572.257 263.879 570.269 264.418 567.977 264.058C562.88 263.258 559.914 258.42 560.906 252.097C561.923 245.617 566.239 242.366 571.257 243.154C573.865 243.563 575.719 244.907 576.747 247.133L577.341 244.635ZM569.946 259.508C572.634 259.93 574.89 257.935 575.448 254.379C576.006 250.822 574.469 248.233 571.782 247.811C569.095 247.39 566.844 249.345 566.28 252.941C565.71 256.576 567.259 259.087 569.946 259.508Z" fill="black"/>
<path d="M552.836 240.864C557.103 241.195 559.356 244.218 559.01 248.684L557.941 262.483L552.318 262.048L553.288 249.525C553.455 247.372 552.563 245.938 550.569 245.784C548.176 245.599 546.39 247.426 546.152 250.497L545.299 261.504L539.676 261.068L541.27 240.49L546.773 240.916L546.637 243.714C548.166 241.586 550.203 240.66 552.836 240.864Z" fill="black"/>
<path d="M527.898 261.568C521.698 261.572 517.335 256.895 517.332 250.655C517.328 244.415 521.685 239.732 527.885 239.728C534.085 239.725 538.448 244.402 538.452 250.642C538.455 256.882 534.098 261.565 527.898 261.568ZM527.895 257.168C531.055 257.167 533.014 254.606 533.012 250.646C533.009 246.686 531.048 244.127 527.888 244.128C524.728 244.13 522.769 246.691 522.772 250.651C522.774 254.611 524.735 257.17 527.895 257.168Z" fill="black"/>
<path d="M510.397 261.211L508.802 232.776L514.433 232.46L516.028 260.895L510.397 261.211Z" fill="black"/>
<path d="M508.107 251.675L508.213 252.629L493.343 254.268C493.923 257.343 495.914 258.975 498.697 258.668C500.645 258.453 501.901 257.43 502.379 255.566L507.989 255.35C507.089 259.957 503.91 262.52 499.298 263.029C492.499 263.778 488.077 259.436 487.385 253.154C486.723 247.151 490.023 242.038 496.305 241.346C502.388 240.676 507.314 244.479 508.107 251.675ZM496.955 245.419C494.41 245.7 492.849 247.602 492.882 250.456L501.987 249.452C501.354 246.625 499.5 245.139 496.955 245.419Z" fill="black"/>
<path d="M476.129 244.203C480.726 243.33 485.166 246.558 486.427 253.2C487.666 259.723 484.878 264.772 479.77 265.742C477.255 266.219 475.049 265.538 473.271 263.677L473.552 266.23L468.639 267.162L463.327 239.182L468.869 238.13L470.719 247.876C471.773 245.925 473.535 244.695 476.129 244.203ZM477.666 261.092C480.338 260.585 481.792 257.948 481.083 254.214C480.381 250.52 478.062 248.599 475.39 249.106C472.718 249.614 471.272 252.29 471.966 255.945C472.659 259.6 474.993 261.6 477.666 261.092Z" fill="black"/>
<path d="M378.338 285.625L383.67 294.226C384.407 295.416 385.178 295.597 386.368 294.86L387.966 293.869L390.348 297.711L387.22 299.65C383.684 301.842 381.426 301.312 379.234 297.776L373.544 288.596L371.228 290.173L369.036 286.637L371.458 285.23L368.065 279.756L372.859 276.785L376.273 282.293L379.474 280.168L381.665 283.704L378.338 285.625Z" fill="black"/>
<path d="M366.074 294.008L364.654 291.878L365.286 291.457C366.75 290.48 366.994 289.26 366.018 287.795L365.374 286.83L362.512 288.739L359.183 283.747L364.607 280.13L368.58 286.086C370.489 288.948 369.868 291.478 366.707 293.586L366.074 294.008Z" fill="black"/>
<path d="M355.945 295.148C359.381 292.597 363.065 293.398 365.736 296.995L373.988 308.106L369.46 311.469L361.972 301.385C360.684 299.651 359.07 299.155 357.464 300.348C355.538 301.779 355.39 304.33 357.226 306.803L363.808 315.666L359.28 319.028L346.974 302.458L351.406 299.167L353.14 301.367C352.896 298.758 353.825 296.722 355.945 295.148Z" fill="black"/>
<path d="M351.677 326.367C347.409 330.053 343.34 330.238 340.07 327.248L343.845 323.724C345.42 325.058 347.238 325.021 349.266 323.269C350.871 321.884 351.611 320.293 350.591 319.112C349.859 318.265 348.831 318.36 347.173 319.316L343.562 321.378C339.982 323.413 337.139 323.12 335.074 320.729C332.354 317.58 333.141 313.412 336.986 310.092C340.77 306.823 345.016 306.538 348.05 309.256L344.337 312.728C342.948 311.549 341.092 311.725 339.487 313.111C338.065 314.339 337.732 315.79 338.595 316.789C339.301 317.606 340.381 317.572 341.71 316.846L345.671 314.64C349.338 312.583 352.02 312.751 354.112 315.172C356.962 318.472 355.885 322.732 351.677 326.367Z" fill="black"/>
<path d="M336.848 325.406L337.528 326.083L326.969 336.68C329.348 338.713 331.922 338.736 333.898 336.753C335.282 335.365 335.619 333.78 334.823 332.028L339.06 328.343C341.245 332.497 340.375 336.487 337.1 339.774C332.272 344.619 326.105 344.008 321.628 339.547C317.35 335.283 316.717 329.231 321.178 324.755C325.497 320.42 331.72 320.295 336.848 325.406ZM324.237 327.521C322.43 329.335 322.406 331.795 324.22 333.998L330.686 327.51C328.42 325.704 326.044 325.708 324.237 327.521Z" fill="black"/>
<path d="M322.497 355.41C318.478 360.13 312.088 360.416 307.337 356.371C302.585 352.326 301.848 345.972 305.868 341.251C309.887 336.531 316.277 336.245 321.028 340.29C325.779 344.335 326.516 350.689 322.497 355.41ZM319.147 352.557C321.195 350.151 320.517 346.999 317.501 344.432C314.486 341.865 311.266 341.698 309.218 344.104C307.169 346.51 307.848 349.662 310.863 352.229C313.878 354.796 317.098 354.963 319.147 352.557Z" fill="black"/>
<path d="M287.904 351.882L291.209 347.312L314.287 364.001L311.357 368.052L309.166 366.714C310.096 369.114 309.776 371.4 308.275 373.475C305.228 377.688 299.474 378.069 294.094 374.178C288.616 370.217 287.578 364.826 290.32 361.034C291.867 358.894 293.729 357.822 295.943 357.695L287.904 351.882ZM304.959 369.596C306.553 367.392 305.734 364.43 302.719 362.25C299.705 360.07 296.667 360.243 295.073 362.447C293.48 364.651 294.234 367.566 297.281 369.77C300.36 371.996 303.366 371.8 304.959 369.596Z" fill="black"/>
<path d="M250.273 454.886L260.056 457.474C261.41 457.832 262.094 457.433 262.452 456.08L262.933 454.262L267.303 455.418L266.362 458.976C265.298 462.998 263.293 464.164 259.272 463.1L248.831 460.339L248.231 463.076L244.209 462.013L245.002 459.326L238.776 457.68L240.218 452.227L246.483 453.884L247.349 450.141L251.37 451.205L250.273 454.886Z" fill="black"/>
<path d="M264.186 467.067L263.048 472.673C262.31 472.687 261.651 472.716 260.922 472.69C262.29 474.397 262.824 476.791 262.282 479.456C261.415 483.729 258.388 485.972 254.703 485.223C251.489 484.571 249.833 482.071 249.838 477.827L249.859 470.485L248.37 470.182C246.88 469.88 245.928 470.952 245.482 473.147C245.02 475.42 245.589 476.638 247.415 477.294L246.31 482.335C241.96 481.044 240.448 477.839 241.554 472.39C242.732 466.588 245.877 464.166 250.856 465.177L259.793 466.992C261.675 467.374 263.047 467.449 264.186 467.067ZM258.524 477.061C259.057 474.434 257.856 472.109 254.877 471.504L253.387 471.201L253.434 476.598C253.445 478.356 254.116 479.472 255.449 479.742C256.899 480.037 258.11 479.099 258.524 477.061Z" fill="black"/>
<path d="M238.221 491.417C238.752 487.17 241.878 485.061 246.323 485.617L260.057 487.334L259.357 492.93L246.894 491.372C244.751 491.104 243.277 491.928 243.029 493.912C242.731 496.294 244.473 498.164 247.529 498.546L258.484 499.916L257.784 505.512L229.524 501.979L230.224 496.383L240.742 497.698C238.727 496.076 237.894 494.036 238.221 491.417Z" fill="black"/>
<path d="M240.776 509.036L250.875 509.697C252.272 509.789 252.867 509.266 252.958 507.869L253.081 505.993L257.591 506.289L257.351 509.961C257.079 514.112 255.336 515.641 251.185 515.37L240.408 514.664L240.345 517.466L236.194 517.194L236.456 514.406L230.03 513.985L230.398 508.357L236.864 508.78L236.996 504.941L241.147 505.212L240.776 509.036Z" fill="black"/>
<path d="M249.958 619.847L248.01 614.172L273.688 614.071C277.483 614.037 278.886 615.416 279.834 618.178L281.366 622.643L276.826 624.201L275.943 621.628C275.398 620.039 274.647 619.451 273.331 619.438L272.736 619.43L254.84 634.072L252.828 628.208L262.566 620.848L265.196 619.269L249.958 619.847Z" fill="black"/>
<path d="M250.61 644.349L248.383 639.167L274.55 627.924L276.524 632.518L274.251 633.713C276.788 634.146 278.586 635.594 279.596 637.946C281.649 642.724 279.022 647.858 272.922 650.479C266.711 653.148 261.551 651.272 259.704 646.972C258.662 644.546 258.696 642.398 259.724 640.433L250.61 644.349ZM274.566 638.802C273.492 636.303 270.529 635.486 267.111 636.955C263.693 638.423 262.283 641.119 263.356 643.618C264.43 646.117 267.32 646.965 270.774 645.481C274.266 643.981 275.639 641.301 274.566 638.802Z" fill="black"/>
<path d="M287.975 655.573C290.866 661.058 288.758 667.097 283.238 670.007C277.717 672.916 271.544 671.24 268.654 665.755C265.763 660.27 267.871 654.231 273.391 651.322C278.912 648.413 285.085 650.088 287.975 655.573ZM284.083 657.625C282.609 654.829 279.431 654.289 275.927 656.135C272.424 657.981 271.073 660.908 272.546 663.704C274.02 666.5 277.198 667.04 280.701 665.194C284.205 663.348 285.556 660.42 284.083 657.625Z" fill="black"/>
<path d="M278.9 683.841C276.401 679.884 277.776 674.569 283.491 670.96C289.106 667.414 294.825 668.155 297.601 672.551C298.968 674.716 299.144 677.017 298.066 679.355L300.337 678.157L303.007 682.384L278.927 697.591L275.915 692.823L284.302 687.526C282.101 687.261 280.31 686.073 278.9 683.841ZM294.048 676.215C292.596 673.915 289.609 673.53 286.396 675.559C283.217 677.567 282.281 680.429 283.733 682.729C285.185 685.029 288.206 685.392 291.351 683.406C294.497 681.419 295.501 678.514 294.048 676.215Z" fill="black"/>
<path d="M361.262 756.805L361.796 756.007L374.227 764.331C375.763 761.605 375.291 759.074 372.964 757.516C371.336 756.426 369.716 756.4 368.15 757.518L363.719 754.07C367.375 751.126 371.457 751.212 375.313 753.793C380.996 757.599 381.583 763.768 378.067 769.02C374.706 774.039 368.889 775.824 363.638 772.308C358.553 768.903 357.234 762.821 361.262 756.805ZM365.764 768.773C367.891 770.198 370.311 769.748 372.123 767.544L364.512 762.447C363.176 765.018 363.637 767.349 365.764 768.773Z" fill="black"/>
<path d="M380.458 782.867C376.728 780.767 375.96 777.076 378.158 773.172L384.949 761.112L389.863 763.879L383.701 774.824C382.641 776.706 382.845 778.381 384.588 779.363C386.679 780.54 389.07 779.637 390.581 776.953L395.998 767.333L400.912 770.1L386.939 794.917L382.025 792.15L387.225 782.913C384.961 784.163 382.758 784.162 380.458 782.867Z" fill="black"/>
<path d="M397.702 787.166L402.156 778.079C402.772 776.822 402.515 776.072 401.258 775.456L399.57 774.629L401.559 770.57L404.864 772.189C408.599 774.02 409.35 776.214 407.519 779.95L402.767 789.648L405.334 790.772L403.503 794.508L401.024 793.204L398.19 798.987L393.125 796.505L395.977 790.686L392.476 789.104L394.307 785.368L397.702 787.166Z" fill="black"/>
</svg>
