<svg width="1056" height="1056" viewBox="0 0 1056 1056" fill="none" xmlns="http://www.w3.org/2000/svg">
<path d="M800.767 665.561L811.213 664.468L810.193 661.678L804.019 658.736L806.445 653.645L832.155 665.895L829.729 670.986L815.61 664.259L819.641 673.934L816.595 680.325L812.723 669.574L797.893 671.592L800.767 665.561Z" fill="black"/>
<path d="M809.77 643.612C811.843 638.367 815.363 636.317 819.646 637.452L817.935 642.324C815.921 641.871 814.327 642.747 813.342 645.239C812.562 647.21 812.644 648.963 814.094 649.537C815.136 649.948 816.003 649.388 817.029 647.772L819.273 644.272C821.502 640.809 824.157 639.751 827.096 640.913C830.964 642.442 832.199 646.5 830.331 651.225C828.493 655.874 824.862 658.095 820.914 657.093L822.595 652.295C824.372 652.697 825.935 651.68 826.715 649.709C827.406 647.961 827.029 646.521 825.801 646.036C824.797 645.639 823.856 646.17 823.014 647.429L820.526 651.219C818.23 654.742 815.776 655.836 812.8 654.66C808.745 653.057 807.726 648.782 809.77 643.612Z" fill="black"/>
<path d="M814.286 634.404L816.031 628.957C816.765 629.024 817.424 629.067 818.146 629.172C816.973 627.326 816.704 624.888 817.534 622.298C818.865 618.146 822.119 616.248 825.699 617.395C828.823 618.396 830.195 621.062 829.726 625.28L828.9 632.576L830.348 633.039C831.795 633.503 832.859 632.542 833.543 630.409C834.251 628.199 833.818 626.927 832.075 626.074L833.726 621.185C837.908 622.945 839.061 626.296 837.364 631.591C835.558 637.229 832.167 639.292 827.329 637.743L818.644 634.96C816.815 634.374 815.459 634.15 814.286 634.404ZM821.008 625.091C820.19 627.643 821.13 630.086 824.025 631.013L825.472 631.477L826.016 626.107C826.198 624.359 825.653 623.177 824.358 622.762C822.949 622.31 821.642 623.11 821.008 625.091Z" fill="black"/>
<path d="M842.694 613.013C841.737 617.185 838.255 618.767 834.045 617.801L820.594 614.716L821.855 609.219L834.214 612.053C836.007 612.465 837.707 612.034 838.145 610.123C838.637 607.979 837.057 606.098 834.055 605.41L823.295 602.942L824.555 597.444L836.914 600.279C838.708 600.69 840.407 600.259 840.845 598.349C841.337 596.205 839.758 594.324 836.756 593.635L825.995 591.167L827.256 585.67L847.373 590.284L846.139 595.665L843.548 595.152C845.329 596.874 845.931 598.9 845.377 601.317C844.715 604.202 842.894 605.877 840.427 606.256C842.588 608.106 843.32 610.284 842.694 613.013Z" fill="black"/>
<path d="M840.38 499.907L839.429 500.035L837.422 485.211C834.362 485.867 832.78 487.898 833.156 490.673C833.419 492.615 834.473 493.844 836.348 494.277L836.704 499.88C832.076 499.094 829.434 495.98 828.812 491.382C827.894 484.604 832.125 480.075 838.387 479.227C844.373 478.417 849.565 481.588 850.413 487.851C851.235 493.916 847.555 498.935 840.38 499.907ZM846.358 488.602C846.014 486.066 844.073 484.552 841.222 484.656L842.451 493.733C845.262 493.029 846.701 491.139 846.358 488.602Z" fill="black"/>
<path d="M847.278 468.447C848.136 472.64 845.852 475.639 841.463 476.538L827.904 479.315L826.773 473.789L839.077 471.27C841.193 470.836 842.325 469.584 841.924 467.624C841.442 465.273 839.193 464.06 836.176 464.678L825.36 466.892L824.229 461.367L852.13 455.653L853.261 461.179L842.877 463.305C845.305 464.196 846.748 465.861 847.278 468.447Z" fill="black"/>
<path d="M839.261 452.702L829.463 455.234C828.107 455.585 827.705 456.267 828.056 457.623L828.526 459.443L824.15 460.574L823.229 457.011C822.188 452.983 823.365 450.985 827.393 449.944L837.849 447.241L837.032 444.56L841.06 443.519L841.683 446.25L847.918 444.638L849.33 450.099L843.056 451.72L844.133 455.408L840.106 456.449L839.261 452.702Z" fill="black"/>
</svg>
