<svg width="1056" height="1056" viewBox="0 0 1056 1056" fill="none" xmlns="http://www.w3.org/2000/svg">
<path d="M182.763 471.417C181.814 476.976 178.792 479.707 174.367 479.479L175.038 474.359C177.103 474.387 178.482 473.202 178.932 470.56C179.289 468.47 178.848 466.772 177.31 466.51C176.206 466.321 175.474 467.048 174.802 468.841L173.328 472.728C171.86 476.576 169.48 478.159 166.365 477.627C162.264 476.928 160.22 473.211 161.074 468.203C161.915 463.275 165.01 460.353 169.08 460.52L168.423 465.562C166.602 465.535 165.281 466.852 164.925 468.941C164.609 470.795 165.274 472.126 166.576 472.348C167.64 472.529 168.452 471.815 169.016 470.41L170.67 466.188C172.191 462.268 174.367 460.692 177.521 461.23C181.819 461.963 183.698 465.936 182.763 471.417Z" fill="black"/>
<path d="M159.021 485.508L159.642 479.903L180.156 482.173L179.549 487.659L176.757 487.431C178.834 489.029 179.692 491.096 179.402 493.72C178.931 497.974 175.836 500.126 171.383 499.634L157.627 498.111L158.247 492.506L170.731 493.887C172.878 494.125 174.339 493.28 174.559 491.292C174.823 488.907 173.056 487.061 169.994 486.723L159.021 485.508Z" fill="black"/>
<path d="M183.352 593.978C184.399 599.52 182.516 603.132 178.289 604.46L177.135 599.427C179.08 598.734 179.96 597.143 179.463 594.509C179.069 592.426 178.065 590.988 176.532 591.277C175.431 591.485 174.998 592.422 174.993 594.336L174.964 598.494C174.928 602.612 173.248 604.924 170.143 605.511C166.055 606.283 162.845 603.511 161.902 598.519C160.974 593.606 162.858 589.79 166.731 588.529L167.871 593.483C166.154 594.093 165.375 595.787 165.768 597.87C166.117 599.717 167.205 600.733 168.502 600.488C169.563 600.288 170.075 599.336 170.115 597.822L170.195 593.289C170.256 589.084 171.747 586.849 174.891 586.255C179.175 585.445 182.32 588.515 183.352 593.978Z" fill="black"/>
<path d="M175.057 606.148L175.988 605.917L179.589 620.438C182.56 619.454 183.912 617.264 183.238 614.546C182.767 612.644 181.585 611.535 179.674 611.309L178.715 605.777C183.4 606.058 186.363 608.867 187.48 613.371C189.126 620.01 185.411 624.97 179.277 626.491C173.414 627.944 167.909 625.353 166.388 619.219C164.915 613.279 168.029 607.891 175.057 606.148ZM170.338 618.033C170.955 620.518 173.048 621.812 175.872 621.401L173.667 612.51C170.949 613.514 169.722 615.549 170.338 618.033Z" fill="black"/>
<path d="M171.683 638.195C170.335 634.133 172.49 630.973 176.59 629.613L189.688 625.266L191.464 630.619L179.429 634.613C177.683 635.192 176.454 636.443 177.072 638.303C177.765 640.391 180.091 641.179 183.014 640.209L193.492 636.731L195.269 642.084L183.234 646.078C181.488 646.657 180.259 647.908 180.876 649.768C181.569 651.856 183.896 652.644 186.819 651.674L197.297 648.197L199.073 653.55L179.484 660.05L177.745 654.811L180.226 653.904C177.81 653.357 176.244 651.938 175.463 649.584C174.53 646.775 175.217 644.398 177.129 642.794C174.321 642.335 172.565 640.852 171.683 638.195Z" fill="black"/>
<path d="M182.953 668.981L180.781 663.776L199.83 655.829L201.955 660.923L199.402 662.075C201.993 662.468 203.744 663.861 204.761 666.297C206.409 670.247 204.743 673.629 200.608 675.354L187.835 680.683L185.664 675.478L197.255 670.642C199.249 669.81 200.119 668.364 199.349 666.518C198.425 664.303 195.984 663.544 193.142 664.73L182.953 668.981Z" fill="black"/>
<path d="M212.063 681.955C214.531 687.026 213.666 691.006 209.938 693.399L207.499 688.847C209.193 687.667 209.624 685.9 208.451 683.491C207.523 681.585 206.175 680.461 204.772 681.144C203.765 681.634 203.594 682.652 204.093 684.5L205.159 688.518C206.208 692.501 205.196 695.174 202.355 696.557C198.614 698.378 194.787 696.548 192.564 691.981C190.375 687.485 191.189 683.307 194.594 681.072L196.997 685.552C195.501 686.591 195.196 688.431 196.124 690.337C196.946 692.027 198.263 692.721 199.45 692.143C200.421 691.67 200.664 690.618 200.304 689.147L199.188 684.752C198.14 680.68 198.99 678.131 201.867 676.73C205.788 674.822 209.629 676.956 212.063 681.955Z" fill="black"/>
<path d="M201.019 708.42C198.936 704.681 200.209 701.132 204.123 698.952L216.212 692.214L218.958 697.141L207.986 703.255C206.099 704.307 205.398 705.842 206.372 707.589C207.54 709.686 210.051 710.164 212.741 708.665L222.385 703.291L225.13 708.217L207.101 718.265L204.414 713.443L206.821 712.01C204.202 711.912 202.304 710.726 201.019 708.42Z" fill="black"/>
<path d="M231.934 717.853C235.277 723.075 233.687 729.27 228.432 732.635C223.177 736 216.884 734.851 213.541 729.63C210.198 724.409 211.788 718.213 217.043 714.848C222.298 711.484 228.591 712.632 231.934 717.853ZM228.228 720.226C226.524 717.565 223.312 717.294 219.977 719.43C216.642 721.565 215.543 724.596 217.247 727.257C218.951 729.919 222.163 730.189 225.498 728.054C228.833 725.918 229.932 722.887 228.228 720.226Z" fill="black"/>
<path d="M243.166 734.528C246.754 739.486 245.513 745.074 240.134 748.966C234.754 752.858 229.059 752.288 225.472 747.329C222.377 743.052 222.661 738.6 226.123 735.059L229.358 739.531C227.895 741.33 227.794 743.033 228.99 744.685C230.678 747.019 233.542 747.02 236.945 744.558C240.348 742.096 241.243 739.375 239.555 737.042C238.382 735.422 236.669 735.032 234.479 735.826L231.243 731.354C235.722 729.151 240.118 730.315 243.166 734.528Z" fill="black"/>
<path d="M300.717 810.669L301.298 809.904L313.214 818.948C314.909 816.318 314.588 813.764 312.358 812.071C310.796 810.886 309.181 810.765 307.551 811.788L303.332 808.084C307.156 805.361 311.226 805.689 314.922 808.494C320.371 812.629 320.591 818.822 316.77 823.856C313.119 828.668 307.207 830.106 302.172 826.285C297.297 822.585 296.34 816.436 300.717 810.669ZM304.504 822.883C306.543 824.43 308.985 824.124 310.925 822.031L303.628 816.493C302.142 818.981 302.465 821.335 304.504 822.883Z" fill="black"/>
<path d="M318.19 837.73C314.593 835.411 314.29 831.599 316.631 827.968L324.108 816.369L328.848 819.425L321.978 830.082C320.981 831.629 320.808 833.373 322.456 834.435C324.305 835.627 326.611 834.782 328.279 832.193L334.261 822.914L339.002 825.97L332.131 836.628C331.134 838.174 330.961 839.919 332.609 840.981C334.458 842.173 336.764 841.327 338.433 838.738L344.414 829.459L349.155 832.515L337.972 849.863L333.332 846.872L334.695 844.61C332.471 845.698 330.361 845.575 328.276 844.232C325.788 842.628 324.832 840.346 325.316 837.898C322.841 839.3 320.544 839.247 318.19 837.73Z" fill="black"/>
<path d="M346.315 854.654L341.354 851.971L351.173 833.816L356.028 836.442L354.767 838.943C357.029 837.62 359.266 837.602 361.589 838.858C365.353 840.894 366.184 844.572 364.053 848.512L357.469 860.686L352.508 858.003L358.483 846.955C359.51 845.055 359.278 843.383 357.518 842.432C355.407 841.29 353.032 842.234 351.567 844.943L346.315 854.654Z" fill="black"/>
<path d="M377.107 846.45C382.213 848.847 384.039 852.487 382.64 856.692L377.884 854.68C378.461 852.697 377.686 851.053 375.26 849.914C373.341 849.013 371.587 848.985 370.924 850.397C370.448 851.411 370.954 852.311 372.503 853.436L375.856 855.894C379.173 858.334 380.064 861.05 378.721 863.911C376.954 867.676 372.827 868.656 368.228 866.497C363.702 864.373 361.712 860.611 362.957 856.733L367.641 858.71C367.13 860.458 368.047 862.082 369.966 862.983C371.668 863.781 373.128 863.495 373.689 862.3C374.148 861.322 373.676 860.35 372.472 859.431L368.844 856.712C365.471 854.201 364.532 851.683 365.892 848.786C367.744 844.84 372.074 844.088 377.107 846.45Z" fill="black"/>
<path d="M385.152 873.984C381.181 872.387 379.94 868.826 381.613 864.67L386.779 851.83L392.011 853.936L387.323 865.588C386.516 867.592 386.937 869.227 388.792 869.973C391.019 870.869 393.272 869.663 394.421 866.806L398.542 856.564L403.775 858.669L396.07 877.817L390.949 875.756L391.92 873.129C389.822 874.699 387.601 874.97 385.152 873.984Z" fill="black"/>
<path d="M415.125 861.879C421.009 863.834 423.67 869.65 421.703 875.572C419.735 881.493 414.122 884.56 408.238 882.605C402.354 880.65 399.693 874.834 401.66 868.912C403.628 862.99 409.241 859.924 415.125 861.879ZM413.737 866.054C410.739 865.058 408.071 866.869 406.823 870.627C405.574 874.385 406.627 877.433 409.626 878.429C412.624 879.426 415.292 877.614 416.54 873.856C417.789 870.098 416.736 867.051 413.737 866.054Z" fill="black"/>
<path d="M434.348 867.767C440.257 869.36 442.812 874.481 441.084 880.892C439.357 887.303 434.574 890.447 428.665 888.855C423.566 887.481 420.984 883.844 421.443 878.913L426.773 880.349C426.769 882.668 427.762 884.055 429.732 884.586C432.513 885.335 434.739 883.532 435.832 879.477C436.925 875.421 435.906 872.744 433.125 871.995C431.194 871.474 429.618 872.251 428.417 874.247L423.087 872.811C425.179 868.279 429.327 866.414 434.348 867.767Z" fill="black"/>
<path d="M526.981 890.816L526.951 889.857L541.904 889.39C541.567 886.279 539.71 884.496 536.911 884.584C534.952 884.645 533.621 885.567 532.997 887.387L527.387 887.162C528.647 882.64 532.017 880.334 536.654 880.19C543.491 879.976 547.559 884.652 547.756 890.969C547.944 897.006 544.253 901.843 537.936 902.04C531.819 902.231 527.207 898.053 526.981 890.816ZM537.608 897.929C540.167 897.849 541.872 896.075 542.063 893.227L532.908 893.513C533.318 896.382 535.049 898.008 537.608 897.929Z" fill="black"/>
<path d="M554.557 900.688L548.668 901.288L552.665 880.134L557.998 879.591L562.106 890.712L562.859 893.37L563.1 890.611L564.882 878.89L570.215 878.347L578.394 898.261L572.504 898.861L569.308 889.979L567.826 884.903L567.398 890.173L566.018 899.521L561.044 900.028L557.816 891.229L556.326 886.074L555.898 891.344L554.557 900.688Z" fill="black"/>
<path d="M665.929 870.508L662.014 861.176C661.472 859.885 660.739 859.585 659.448 860.127L657.715 860.854L655.966 856.686L659.359 855.263C663.195 853.653 665.342 854.531 666.951 858.367L671.13 868.326L673.666 867.132L675.275 870.968L672.662 871.977L675.154 877.916L669.953 880.098L667.446 874.123L663.951 875.719L662.342 871.883L665.929 870.508Z" fill="black"/>
<path d="M667.101 852.052L672.272 849.608C672.725 850.19 673.143 850.7 673.559 851.3C674.107 849.183 675.704 847.321 678.163 846.159C682.105 844.295 685.713 845.376 687.321 848.776C688.723 851.741 687.712 854.564 684.31 857.101L678.417 861.48L679.066 862.855C679.716 864.229 681.145 864.35 683.17 863.392C685.267 862.401 685.902 861.216 685.334 859.36L690.033 857.227C691.604 861.484 689.942 864.615 684.916 866.991C679.564 869.522 675.74 868.453 673.569 863.861L669.671 855.616C668.85 853.88 668.088 852.736 667.101 852.052ZM678.495 850.603C676.072 851.749 674.929 854.103 676.228 856.852L676.878 858.226L681.173 854.956C682.574 853.896 683.065 852.69 682.484 851.46C681.852 850.122 680.375 849.714 678.495 850.603Z" fill="black"/>
<path d="M701.883 858.533C698.128 860.587 694.59 859.285 692.44 855.355L685.799 843.212L690.747 840.506L696.774 851.525C697.81 853.42 699.34 854.134 701.095 853.174C703.201 852.022 703.699 849.516 702.221 846.814L696.923 837.128L701.872 834.421L715.538 859.408L710.59 862.114L705.503 852.815C705.366 855.397 704.199 857.266 701.883 858.533Z" fill="black"/>
<path d="M718.575 848.434L713.588 851.624L707.622 830.939L712.137 828.051L720.816 836.127L722.686 838.159L721.659 835.588L717.966 824.322L722.482 821.434L738.759 835.523L733.772 838.713L726.915 832.225L723.305 828.362L725.298 833.26L728.28 842.226L724.068 844.921L717.22 838.522L713.567 834.591L715.56 839.489L718.575 848.434Z" fill="black"/>
</svg>
